<?xml version="1.0" encoding="UTF-8" standalone="no"?>
<svg
   xmlns:dc="http://purl.org/dc/elements/1.1/"
   xmlns:cc="http://creativecommons.org/ns#"
   xmlns:rdf="http://www.w3.org/1999/02/22-rdf-syntax-ns#"
   xmlns:svg="http://www.w3.org/2000/svg"
   xmlns="http://www.w3.org/2000/svg"
   viewBox="0 0 265.82443 265.57101"
   height="265.57101"
   width="265.82443"
   id="svg869"
   version="1.1">
  <metadata
     id="metadata875">
    <rdf:RDF>
      <cc:Work
         rdf:about="">
        <dc:format>image/svg+xml</dc:format>
        <dc:type
           rdf:resource="http://purl.org/dc/dcmitype/StillImage" />
        <dc:title></dc:title>
      </cc:Work>
    </rdf:RDF>
  </metadata>
  <defs
     id="defs873" />
  <g
     transform="translate(-73.160129,-56.110948)"
     id="g882">
    <path
       style="fill:#000000;stroke-width:1.33333337"
       d="M 182.88821,320.17015 C 129.93136,310.1126 89.379067,271.84931 76.216047,219.51914 72.350337,204.15083 72.114217,175.6546 75.724427,160.1858 87.713257,108.81669 125.86587,70.664072 177.23497,58.675242 c 15.4688,-3.6102 43.96503,-3.37409 59.33334,0.49162 39.1934,9.85863 70.68961,34.97573 88.54685,70.612958 25.42256,50.73512 15.23743,112.74238 -25.15317,153.133 -16.53879,16.53877 -39.99627,29.8597 -62.11842,35.27552 -15.09044,3.69436 -41.01546,4.62926 -54.95536,1.98181 z m 56.74222,-13.16748 c 34.86377,-10.42709 61.86768,-33.54041 77.6884,-66.49548 l 4.63493,-9.65472 -6.35939,-0.40079 c -5.93776,-0.37422 -7.05182,-1.08144 -16.80288,-10.66666 -9.51756,-9.35571 -11.36557,-12.09819 -20.84392,-30.93255 l -10.40044,-20.66667 -15.5556,-5.11169 -15.55558,-5.11169 -4.89287,-9.88831 -4.89287,-9.88832 h -10.99408 c -10.97933,0 -11.01065,0.009 -23.37428,7.44559 -8.41309,5.05972 -16.65274,11.64302 -25.71354,20.54457 -10.02287,9.84671 -15.73128,14.29104 -22.99136,17.90016 -9.42046,4.68308 -9.78682,5.05505 -14.89382,15.12211 -3.85551,7.60008 -7.98788,13.02724 -15.6753,20.5868 -9.74807,9.58592 -10.86073,10.29241 -16.798923,10.66666 l -6.35939,0.40079 4.63493,9.65472 c 17.391323,36.22667 47.498623,59.96135 87.567833,69.03289 13.87309,3.14084 42.86427,1.86322 57.57815,-2.53741 z m -103.06212,-98.7812 c 0,-0.34705 1.28591,-3.27779 2.85757,-6.51276 2.39384,-4.92724 4.17897,-6.49635 11,-9.66891 5.83727,-2.71498 12.10589,-7.60712 22.14243,-17.28026 13.46532,-12.9778 19.4194,-17.90707 21.63001,-17.90707 0.57016,0 1.03665,2.31164 1.03665,5.13699 0,4.77377 -1.04158,6.16425 -14.732,19.66666 -10.43392,10.29064 -17.19238,15.77458 -23.16521,18.79664 -4.63827,2.34683 -8.79004,5.19683 -9.22615,6.33334 -0.53472,1.39342 -2.54344,2.06637 -6.16813,2.06637 -2.95634,0 -5.37517,-0.28395 -5.37517,-0.631 z"
       id="path879" />
  </g>
</svg>
