<?xml version="1.0" encoding="UTF-8" standalone="no"?>
<svg
   xmlns:dc="http://purl.org/dc/elements/1.1/"
   xmlns:cc="http://creativecommons.org/ns#"
   xmlns:rdf="http://www.w3.org/1999/02/22-rdf-syntax-ns#"
   xmlns:svg="http://www.w3.org/2000/svg"
   xmlns="http://www.w3.org/2000/svg"
   width="112.397972mm"
   height="264.468811mm"
   viewBox="0 0 112.397972 264.468811"
   version="1.1"
   id="svg8">
  <defs
     id="defs2" />
  <metadata
     id="metadata5">
    <rdf:RDF>
      <cc:Work
         rdf:about="">
        <dc:format>image/svg+xml</dc:format>
        <dc:type
           rdf:resource="http://purl.org/dc/dcmitype/StillImage" />
        <dc:title></dc:title>
      </cc:Work>
    </rdf:RDF>
  </metadata>
  <g
     id="layer1"
     transform="translate(-6.43194689,108.101196)">
    <g
       id="g865"
       style="display:inline">
      <path
         style="display:inline;fill:#b5836a;stroke-width:0.264583"
         d="m 96.9134023,154.843192 c 0.3847589,-0.335501 0.9498608,-1.026721 1.2557818,-1.536044 0.305921,-0.509323 0.5566653,-0.821033 0.5572093,-0.692688 0.00212,0.50077 -1.1032974,1.983094 -1.789608,2.399793 l -0.7229446,0.438941 z m -60.6834639,0.119873 c 0.9152078,-0.05181 2.3439578,-0.05139 3.175,9.53e-4 0.831042,0.05234 0.082236,0.09473 -1.6640143,0.09421 -1.74625,-5.29e-4 -2.4261937,-0.04334 -1.5109857,-0.09516 z m 47.3303772,-1.168016 -1.3693915,-1.364182 1.4552083,1.279965 c 0.8003646,0.703982 1.5048177,1.317864 1.5654515,1.364183 0.060634,0.04632 0.022016,0.08422 -0.085817,0.08422 -0.1078328,0 -0.8122859,-0.613882 -1.5654515,-1.364182 z m -50.3784185,0.916245 c 0.2574309,-0.06708 0.6146184,-0.06267 0.79375,0.0098 0.1791314,0.07248 -0.031494,0.127362 -0.4680563,0.12197 -0.4365625,-0.0054 -0.5831248,-0.06469 -0.3256937,-0.131774 z m 8.6160597,-0.220413 c 0.4851181,-0.210679 1.6757431,-1.138931 2.6458334,-2.062782 1.8372611,-1.749687 2.8916751,-2.560535 3.3296807,-2.560535 0.1416317,0 -0.2718136,0.34171 -0.9187672,0.759355 -0.6469539,0.417645 -1.5929984,1.206333 -2.1023213,1.75264 -1.2016576,1.288916 -2.8763158,2.517865 -3.413135,2.504733 -0.2328278,-0.0057 -0.026408,-0.182731 0.4587094,-0.393411 z m -10.4070327,-0.1254 c -0.3335441,-0.143329 -0.3824497,-0.22739 -0.1322917,-0.22739 0.2182813,0 0.635,0.102325 0.9260417,0.22739 0.3335441,0.143329 0.3824497,0.227391 0.1322917,0.227391 -0.2182813,0 -0.635,-0.102326 -0.9260417,-0.227391 z m -1.3210437,-0.526136 c -0.092694,-0.149982 0.01351,-0.194338 0.2489684,-0.103984 0.4583687,0.175893 0.5422337,0.365537 0.1616485,0.365537 -0.1369327,0 -0.3217103,-0.117699 -0.4106169,-0.261553 z m -1.0853449,-0.862926 -0.5040281,-0.595313 0.5953125,0.504028 c 0.3274219,0.277216 0.5953125,0.545106 0.5953125,0.595313 0,0.211733 -0.212935,0.05542 -0.6865969,-0.504028 z m 69.7881775,-1.91823 c -0.028906,-0.727604 -0.1138201,-1.620573 -0.1886985,-1.984375 l -0.1361421,-0.661458 0.2839577,0.650559 c 0.1561766,0.357808 0.241091,1.250776 0.1886982,1.984375 l -0.095259,1.333816 z m -70.6375003,-0.264583 c 0.00539,-0.436562 0.06469,-0.583125 0.1317736,-0.325694 0.067083,0.257431 0.062672,0.614619 -0.0098,0.793751 -0.072475,0.179131 -0.127362,-0.03149 -0.1219698,-0.468057 z m 52.5667541,-0.595312 c -0.3291075,-0.419644 -0.3197492,-0.429003 0.099895,-0.0999 0.4407292,0.345643 0.5808872,0.562915 0.3631261,0.562915 -0.054942,0 -0.2633017,-0.208359 -0.4630209,-0.46302 z m -32.2454177,-0.595313 c 0.2182812,-0.141064 0.5159375,-0.25648 0.6614583,-0.25648 0.1455209,0 0.08599,0.115416 -0.1322916,0.25648 -0.2182813,0.141064 -0.5159375,0.25648 -0.6614584,0.25648 -0.1455208,0 -0.08599,-0.115416 0.1322917,-0.25648 z m 30.9089372,-0.992187 c -1.3113229,-1.371787 -1.5472505,-1.933113 -1.4939626,-3.554482 0.045804,-1.393661 0.047041,-1.395624 0.1359214,-0.215831 0.1464961,1.944574 0.3123335,2.355442 1.4480173,3.587513 1.3136295,1.42512 1.2401986,1.574306 -0.089976,0.1828 z m -50.7526872,0.02852 c 0,-0.141961 0.185162,-0.489227 0.411471,-0.771702 0.3879792,-0.484268 0.393486,-0.475826 0.096453,0.147868 -0.3857128,0.809898 -0.5079238,0.959998 -0.507924,0.623834 z m 22.7502032,-0.758019 c 1.0536801,-1.269004 1.1423417,-1.350849 0.8546071,-0.788896 -0.1498547,0.29267 -0.5513822,0.768068 -0.8922827,1.05644 -0.5979853,0.505844 -0.5966582,0.496419 0.037676,-0.267544 z m 46.3442167,-0.858003 c -0.2887136,-0.674699 -0.2821827,-0.69026 0.089822,-0.214013 0.2206461,0.282475 0.4011748,0.609897 0.4011748,0.727604 0,0.402142 -0.1794754,0.214408 -0.4909968,-0.513591 z m -66.7086037,-1.500517 c 0.8028763,-0.884585 1.8549109,-2.084587 2.3378554,-2.66667 0.7927266,-0.955458 0.818257,-0.968318 0.2626447,-0.132292 -0.3384896,0.509323 -1.3905246,1.709325 -2.3378554,2.66667 l -1.7224192,1.740629 z m 21.4987468,-0.153128 c 0,-0.654844 0.051598,-0.922735 0.1146622,-0.595313 0.063064,0.327422 0.063064,0.863203 0,1.190625 -0.063064,0.327422 -0.1146622,0.05953 -0.1146622,-0.595312 z m 43.7408963,-0.727605 c -0.5370989,-0.836744 -0.6997687,-1.195759 -0.3614883,-0.797811 0.6678181,0.785612 1.6251936,2.319166 1.4478222,2.319166 -0.060385,0 -0.5492351,-0.68461 -1.0863339,-1.521355 z M 52.061497,143.219908 c -0.2205701,-1.10285 -0.00682,-1.316604 0.2315104,-0.231511 0.1004562,0.457374 0.1274959,0.886741 0.060088,0.954148 -0.067408,0.06741 -0.1986269,-0.257779 -0.2915984,-0.722637 z m 26.0701618,-0.496094 c 0,-0.363802 0.060053,-0.51263 0.1334521,-0.330729 0.073399,0.181901 0.073399,0.479557 0,0.661458 -0.073399,0.181901 -0.1334521,0.03307 -0.1334521,-0.330729 z m 15.8201434,-1.613139 c -0.3041509,-0.596186 -0.5076206,-1.129355 -0.4521546,-1.184821 0.055466,-0.05547 0.3598807,0.432322 0.6764774,1.083973 0.7210673,1.484174 0.526111,1.571819 -0.2243228,0.100848 z m -15.5105161,-0.900403 c 0.00116,-1.018646 0.048996,-1.402943 0.1062721,-0.853994 0.057276,0.548949 0.056315,1.382386 -0.00214,1.852083 -0.05845,0.469697 -0.1053115,0.02056 -0.1041379,-0.998089 z m -43.6897295,0.270389 c 0.3165967,-0.651651 0.6210114,-1.139439 0.6764774,-1.083973 0.119694,0.119694 -0.9493949,2.268793 -1.1286318,2.268793 -0.067912,0 0.1355579,-0.533169 0.4521544,-1.18482 z m 16.3717139,-0.557021 c 0.012695,-0.308224 0.075391,-0.370919 0.1598525,-0.159852 0.07643,0.190996 0.067031,0.419199 -0.020889,0.507118 -0.087919,0.08792 -0.150453,-0.06835 -0.1389635,-0.347266 z m 42.06875,-0.79375 c 0.012695,-0.308224 0.075391,-0.370919 0.1598525,-0.159852 0.076431,0.190996 0.067031,0.419199 -0.020889,0.507118 -0.087919,0.08792 -0.150453,-0.06835 -0.1389635,-0.347266 z m -42.3333333,-0.264583 c 0.012695,-0.308224 0.075391,-0.370919 0.1598525,-0.159852 0.07643,0.190996 0.067031,0.419199 -0.020889,0.507118 -0.087919,0.08792 -0.1504529,-0.06835 -0.1389635,-0.347266 z m -15.3586183,0.02205 c 0,-0.145521 0.115416,-0.443177 0.2564802,-0.661459 0.1410642,-0.218281 0.2564802,-0.277812 0.2564802,-0.132291 0,0.14552 -0.115416,0.443177 -0.2564802,0.661458 -0.1410642,0.218281 -0.2564802,0.277812 -0.2564802,0.132292 z m 58.9650427,-1.464215 c -1.5329585,-1.636178 -1.5590769,-1.650855 -1.5898667,-0.893396 l -0.031304,0.770111 -0.1860796,-0.79375 c -0.3292147,-1.404315 0.0201,-1.293184 1.7690881,0.562816 0.9424728,1.000139 1.7649976,1.683916 1.8278332,1.519505 0.062836,-0.16441 -0.218327,-0.650313 -0.6248059,-1.079784 -1.3721844,-1.449799 -2.7234274,-3.112154 -2.7234274,-3.350473 0,-0.130264 0.5060156,0.401738 1.1244792,1.182226 0.6184635,0.780489 1.451901,1.737255 1.8520833,2.126148 0.7818591,0.759801 0.8998434,1.15084 0.4340834,1.438696 -0.1674675,0.103501 -0.9628503,-0.532991 -1.8520836,-1.482099 z m -1.5167861,0.538173 c 0,-0.363802 0.060053,-0.51263 0.1334521,-0.330729 0.073399,0.181901 0.073399,0.479557 0,0.661458 -0.073399,0.181901 -0.1334521,0.03307 -0.1334521,-0.330729 z m -42.3333333,-0.264583 c 0,-0.363803 0.060053,-0.512631 0.1334521,-0.33073 0.073399,0.181901 0.073399,0.479558 0,0.661459 -0.073399,0.181901 -0.1334521,0.03307 -0.1334521,-0.330729 z m 27.6427202,-0.661459 c 0.070895,-0.727604 0.2226421,-2.632604 0.3372162,-4.233333 l 0.2083168,-2.910417 -0.066516,2.910417 c -0.036584,1.600729 -0.1883313,3.505729 -0.3372163,4.233333 l -0.2706999,1.322917 z M 50.3954528,135.18319 c 0.00116,-1.018646 0.048996,-1.402944 0.106272,-0.853995 0.057276,0.548949 0.056316,1.382387 -0.00214,1.852084 -0.05845,0.469697 -0.1053116,0.02056 -0.1041379,-0.998089 z m -14.0540229,1.031648 c -0.1876383,-0.203605 -0.2244307,-0.37019 -0.081761,-0.37019 0.2747542,0 0.6724989,0.503294 0.5155618,0.652376 -0.050952,0.0484 -0.2461625,-0.07858 -0.4338008,-0.282186 z m -1.9672914,-0.782623 c -0.8012435,-0.434819 -1.2757579,-1.156519 -1.2395605,-1.885277 0.013123,-0.264228 0.1377442,-0.08515 0.276933,0.397946 0.1929326,0.669632 0.5173515,0.998341 1.3652003,1.383252 0.6116711,0.27769 0.9335357,0.502738 0.7152545,0.500108 -0.2182813,-0.0026 -0.7213034,-0.180843 -1.1178273,-0.396029 z m 2.4407439,-0.291917 c 0.672704,-0.12899 1.3229167,-0.752856 1.3229167,-1.269313 0,-0.156762 -0.3274219,-0.488025 -0.7276042,-0.73614 -0.4001823,-0.248114 -0.6085416,-0.451637 -0.4630208,-0.452273 0.1455208,-6.35e-4 0.5622396,0.229678 0.9260417,0.511809 0.6292863,0.488018 0.6417492,0.548858 0.2562375,1.250888 -0.2899283,0.527969 -0.6286817,0.749862 -1.190625,0.779892 -0.6446144,0.03445 -0.6668328,0.01924 -0.1239459,-0.08486 z m -2.2132769,-0.63777 c -0.8122787,-0.638939 -0.8368204,-0.763644 -0.2856687,-1.451581 0.3944109,-0.492296 0.3993888,-0.488681 0.1200562,0.08719 -0.3607617,0.743746 -0.1712682,1.070115 0.889298,1.531658 0.4554733,0.198215 0.6358302,0.365051 0.4007937,0.370747 -0.2350368,0.0057 -0.7410524,-0.23641 -1.1244792,-0.538014 z m 56.5600133,-1.105276 -0.504028,-0.595312 0.5786403,0.488939 c 0.723497,0.611341 1.1411513,0.37522 1.1411513,-0.64515 0,-0.941146 -0.5449747,-1.224687 -1.5382266,-0.800313 -0.6616663,0.282701 -0.6752759,0.27597 -0.1971411,-0.09751 0.9641719,-0.753132 1.9999511,-0.328075 1.9999511,0.820728 0,1.468173 -0.6369841,1.824723 -1.480347,0.828618 z M 49.6881813,132.71496 c -0.5978154,-0.660578 -0.5597839,-0.877489 0.3558678,-2.029687 0.8666964,-1.090596 1.0101543,-2.12629 0.4052895,-2.925993 -0.2136531,-0.282475 -0.3922469,-0.690421 -0.396875,-0.906547 -0.00463,-0.216127 0.2297105,0.05133 0.5207522,0.594353 0.7242495,1.351293 0.6657266,2.067544 -0.2645834,3.238187 -0.9156517,1.152198 -0.9536832,1.369109 -0.3558677,2.029687 0.2408351,0.26612 0.3783507,0.483855 0.3055903,0.483855 -0.07276,0 -0.3293385,-0.217735 -0.5701737,-0.483855 z m -15.7837155,-0.367285 c 0.363802,-0.387158 1.0186458,-0.771465 1.4552083,-0.854016 l 0.79375,-0.150093 -0.79375,0.299842 c -0.4365625,0.164914 -1.0914063,0.549221 -1.4552083,0.854017 l -0.6614584,0.554174 z m 3.4496666,-0.110423 c -0.6492978,-0.344265 -1.0064853,-0.625492 -0.79375,-0.624948 0.2127356,5.55e-4 0.7910581,0.247448 1.2851617,0.548675 0.7191359,0.438417 0.9426725,0.47781 1.1204276,0.197448 0.1687327,-0.266131 0.2230307,-0.239047 0.2261092,0.112784 0.00517,0.59082 -0.3732313,0.542653 -1.8379485,-0.233959 z m -2.0606041,0.250012 c 0.2546614,-0.06655 0.6713802,-0.06655 0.9260416,0 0.2546615,0.06655 0.046302,0.121 -0.4630208,0.121 -0.5093229,0 -0.7176823,-0.05445 -0.4630208,-0.121 z m 57.5345229,-1.034155 c -0.5108221,-0.682938 -1.4530369,-0.825715 -2.3348143,-0.353802 -0.2895425,0.154959 -0.6550454,0.238875 -0.8122288,0.18648 -0.1571834,-0.05239 0.19602,-0.254274 0.7848971,-0.44862 1.2777708,-0.421703 2.3162559,-0.217236 2.7190268,0.535349 0.4185968,0.782155 0.2041023,0.830594 -0.3568808,0.08059 z m -53.5705346,-0.635544 c 0,-0.509323 0.05445,-0.717683 0.121,-0.463021 0.06655,0.254661 0.06655,0.67138 0,0.926041 -0.06655,0.254662 -0.121,0.0463 -0.121,-0.46302 z m 49.7416666,-1.5875 c 0,-0.509323 0.05445,-0.717683 0.1210001,-0.463021 0.06655,0.254661 0.06655,0.67138 0,0.926041 -0.06655,0.254662 -0.1210001,0.0463 -0.1210001,-0.46302 z m -49.471744,-0.396875 c 0.00294,-0.582084 0.05712,-0.789055 0.120406,-0.459937 0.063287,0.329119 0.060884,0.805369 -0.00534,1.058334 -0.066223,0.252965 -0.1180033,-0.01631 -0.115066,-0.598397 z m 38.2978599,-0.396875 c -0.1557607,-0.291042 -0.2236703,-0.529167 -0.1509099,-0.529167 0.07276,0 0.2597325,0.238125 0.4154932,0.529167 0.1557608,0.291041 0.2236703,0.529166 0.1509099,0.529166 -0.07276,0 -0.2597325,-0.238125 -0.4154932,-0.529166 z m 11.4590695,-1.719792 c 0.00148,-0.873125 0.05088,-1.198415 0.1097656,-0.722866 0.058886,0.475549 0.057671,1.189924 -0.0027,1.5875 -0.060371,0.397576 -0.1085506,0.0085 -0.1070656,-0.864634 z m -12.2257365,-0.0537 c -0.031856,-0.685594 0.4899515,-1.930678 0.8091366,-1.930678 0.4121139,0 0.226736,-0.850665 -1.0888816,-4.996679 -1.5318946,-4.827584 -3.5580796,-12.906121 -4.0069558,-15.976004 -0.1970884,-1.347895 -0.2597918,-3.704081 -0.168547,-6.3334458 0.1610095,-4.639756 0.1187196,-4.9033106 -1.6258458,-10.1324147 -0.5825945,-1.74625 -1.7856872,-5.9134377 -2.6735395,-9.260417 -0.8878519,-3.3469793 -1.7291558,-6.2937763 -1.8695635,-6.5484378 -0.2713276,-0.4921136 0.1140587,-0.6783406 0.4106553,-0.1984375 0.2450015,0.396421 1.4326915,0.3306612 7.5717265,-0.4192304 3.9577901,-0.4834496 6.575851,-0.9588699 8.9350545,-1.6225389 1.8353329,-0.5162986 4.017168,-1.0894407 4.8485224,-1.2736486 1.6919626,-0.3748977 2.8294256,-1.128825 3.3051586,-2.1907078 0.2256142,-0.5035931 0.3222837,-0.5727306 0.3307292,-0.2365354 0.00656,0.2612761 -0.3069844,0.7939654 -0.6967731,1.1837541 -0.6043689,0.604369 -0.7577269,1.087242 -1.0416717,3.2798752 -0.1831308,1.4141424 -0.8267507,4.8105157 -1.4302663,7.547496 -1.8915925,8.578486 -1.9517799,11.3097187 -0.474072,21.512787 0.7378124,5.0943436 0.8266237,6.3794706 0.8502309,12.3031256 0.014499,3.638021 -0.017179,7.983802 -0.070397,9.657292 -0.053217,1.67349 -0.00743,3.280833 0.101741,3.571875 0.1974847,0.526464 0.1964179,0.52649 -0.2088639,0.0052 -0.39599,-0.50937 -0.4347925,-0.510917 -1.3899375,-0.05544 -1.740035,0.829765 -6.2849773,0.861305 -8.3505974,0.05795 -0.6166649,-0.239832 -1.575584,0.663786 -1.8236504,1.718481 -0.1417939,0.602859 -0.2256393,0.718886 -0.2433929,0.336812 z m -26.9314155,-1.519344 0.049124,-1.043874 -3.3437082,0.07458 c -2.6416862,0.05892 -3.6613385,-0.02554 -4.8565726,-0.40231 -1.3623901,-0.429456 -1.5429822,-0.435976 -1.8156668,-0.06555 -0.2385764,0.324091 -0.3112744,0.01352 -0.342745,-1.464232 -0.021968,-1.031564 -0.1703123,-3.542446 -0.3296531,-5.579737 -0.5017717,-6.415528 -0.3734512,-12.115205 0.3842094,-17.065626 1.8187662,-11.8834981 1.8201539,-13.1782701 0.023963,-22.3572925 -0.654952,-3.3469793 -1.2887537,-6.6802455 -1.4084488,-7.4072584 -0.1941944,-1.1795144 -0.3030926,-1.3420651 -1.0113769,-1.5096628 -0.9633866,-0.2279611 -0.6158466,-0.1826038 4.6302083,0.6042861 3.6501681,0.5475127 7.4231458,0.5660692 16.0506543,0.078942 2.7593112,-0.1557964 3.0031827,-0.2148898 3.7041666,-0.8975699 0.4127132,-0.4019364 0.9384962,-1.0037744 1.1684069,-1.3374177 0.3229708,-0.4686906 0.4676275,-0.5263568 0.636193,-0.2536121 0.1384469,0.2240121 0.1160142,0.289874 -0.061388,0.1802334 -0.2488861,-0.1538201 -0.9370324,0.7221672 -1.8248812,2.3230131 -0.1665897,0.3003712 -0.4969032,2.2130048 -0.7340299,4.2502965 -0.9290037,7.9816013 -1.884626,11.8057075 -4.0083986,16.0403761 -2.0716248,4.1306892 -2.3255584,5.1960843 -2.0731816,8.6981666 0.582218,8.0790926 0.074651,11.8860856 -2.6488826,19.8678626 -1.1436964,3.351796 -1.8993591,5.976048 -1.8285053,6.35 0.066418,0.35054 0.00164,0.935003 -0.1439251,1.298805 -0.2384034,0.595779 -0.2598074,0.557808 -0.2155608,-0.382416 z M 64.5757799,70.2483304 c -0.6593501,-0.6593502 -0.7671533,-0.9617255 -0.7310543,-2.0505209 0.033764,-1.0183742 0.061636,-1.0895045 0.1375682,-0.3510817 0.1778876,1.7299117 0.3624265,2.1324528 1.2162518,2.6530515 0.4690374,0.2859839 0.6948085,0.5204156 0.5017135,0.5209596 -0.1930951,5.556e-4 -0.6991107,-0.34704 -1.1244792,-0.7724085 z M 35.1273924,67.3532542 c -0.377489,-0.4171207 -0.4335745,-0.9800162 -0.3624844,-3.638021 l 0.084103,-3.1445474 0.056894,3.1541666 c 0.045219,2.5069145 0.14675,3.2534562 0.4947763,3.638021 0.2408352,0.26612 0.3783508,0.4838544 0.3055904,0.4838544 -0.072761,0 -0.333256,-0.2220633 -0.5788793,-0.4934736 z m 56.5229635,-4.4013183 c 0.00294,-0.5820834 0.05712,-0.7890545 0.120406,-0.4599361 0.063287,0.3291187 0.060884,0.8053687 -0.00534,1.0583334 -0.066223,0.252965 -0.1180031,-0.016314 -0.115066,-0.5983973 z M 35.0384736,59.2477691 c 0.00198,-0.7276042 0.05337,-0.9938579 0.1141855,-0.5916745 0.060816,0.4021831 0.05919,0.9974956 -0.00361,1.3229167 -0.062802,0.3254208 -0.1125601,-0.00364 -0.1105739,-0.7312422 z m 56.3472989,-0.5291667 c 0.00294,-0.5820834 0.05712,-0.7890545 0.1204061,-0.4599361 0.063287,0.3291187 0.060884,0.8053687 -0.00534,1.0583334 -0.066223,0.252965 -0.1180031,-0.016314 -0.1150661,-0.5983973 z m -56.137502,-1.3449653 c 0.012695,-0.3082245 0.075391,-0.3709193 0.1598525,-0.1598525 0.07643,0.1909961 0.067031,0.4191993 -0.020889,0.5071182 -0.087919,0.087919 -0.150453,-0.068351 -0.1389635,-0.3472657 z M 91.106046,56.866519 c 0.00539,-0.4365625 0.06469,-0.5831248 0.1317736,-0.3256936 0.067083,0.2574308 0.062672,0.6146183 -0.0098,0.79375 -0.072475,0.1791314 -0.1273619,-0.031494 -0.1219697,-0.4680564 z M 35.8433695,54.2206855 c 0.00116,-1.0186458 0.048996,-1.4029433 0.106272,-0.8539946 0.057276,0.5489491 0.056316,1.3823866 -0.00214,1.8520835 -0.05845,0.469697 -0.1053116,0.020558 -0.1041379,-0.9980889 z m 55.0132364,0.7937501 c 0.00294,-0.5820834 0.057119,-0.7890545 0.120406,-0.4599361 0.063287,0.3291187 0.060884,0.8053687 -0.00534,1.0583334 -0.066223,0.2529649 -0.1180031,-0.016314 -0.115066,-0.5983973 z M 90.6281003,49.987352 c 4.498e-4,-1.8917709 0.042606,-2.6309598 0.093651,-1.6426424 0.051046,0.9883178 0.050667,2.5361303 -8.467e-4,3.4395835 -0.051503,0.9034534 -0.093267,0.09483 -0.092804,-1.7969411 z m -55.0640716,1.1906251 c 0,-0.6548438 0.051598,-0.9227344 0.1146623,-0.5953125 0.063064,0.3274219 0.063064,0.8632031 0,1.190625 -0.063064,0.3274219 -0.1146623,0.059531 -0.1146623,-0.5953125 z m 0.2441007,-1.9843751 c 0.00539,-0.4365625 0.06469,-0.5831247 0.1317736,-0.3256936 0.067083,0.2574308 0.062672,0.6146184 -0.0098,0.79375 -0.072475,0.1791314 -0.127362,-0.031494 -0.1219698,-0.4680564 z m 0.2645833,-1.5875001 c 0.00539,-0.4365625 0.06469,-0.5831247 0.1317736,-0.3256936 0.067083,0.2574309 0.062672,0.6146184 -0.0098,0.79375 -0.072475,0.1791314 -0.127362,-0.031494 -0.1219698,-0.4680564 z m 0.2797265,-2.1166667 c 0.00294,-0.5820834 0.05712,-0.7890545 0.120406,-0.4599361 0.063286,0.3291187 0.060884,0.8053687 -0.00534,1.0583334 -0.066223,0.252965 -0.1180031,-0.016314 -0.115066,-0.5983973 z m 53.950053,0.396875 c 0,-0.3638021 0.060053,-0.5126302 0.1334521,-0.3307292 0.073399,0.1819011 0.073399,0.4795573 0,0.6614584 -0.073399,0.181901 -0.1334521,0.033073 -0.1334521,-0.3307292 z m -0.2854717,-1.2126736 c 0.012695,-0.3082245 0.075391,-0.3709194 0.1598525,-0.1598525 0.076431,0.1909961 0.067031,0.4191992 -0.020889,0.5071182 -0.087919,0.087919 -0.150453,-0.068351 -0.1389635,-0.3472657 z M 36.096807,42.8436018 c 0.00198,-0.7276042 0.05337,-0.9938579 0.1141854,-0.5916746 0.060816,0.4021831 0.05919,0.9974957 -0.00361,1.3229168 -0.062802,0.3254208 -0.1125601,-0.00364 -0.1105738,-0.7312422 z m 53.6863224,0.5291666 c 0.00539,-0.4365625 0.06469,-0.5831247 0.1317736,-0.3256936 0.067083,0.2574309 0.062672,0.6146184 -0.0098,0.79375 -0.072476,0.1791314 -0.127362,-0.031494 -0.1219698,-0.4680564 z m -0.2645834,-1.5875 c 0.00539,-0.4365625 0.06469,-0.5831248 0.1317736,-0.3256937 0.067083,0.2574309 0.062672,0.6146184 -0.0098,0.7937501 -0.072475,0.1791314 -0.1273619,-0.031494 -0.1219697,-0.4680564 z m -0.2151552,-3.9687502 c 5.292e-4,-1.7462501 0.043344,-2.4261938 0.095157,-1.5109857 0.051813,0.9152078 0.051386,2.3439578 -9.525e-4,3.1750001 -0.052335,0.831042 -0.094728,0.082236 -0.094205,-1.6640144 z m -53.2208742,1.9843751 c 0,-0.5093229 0.05445,-0.7176823 0.121,-0.4630209 0.06655,0.2546615 0.06655,0.6713803 0,0.9260417 -0.06655,0.2546615 -0.121,0.046302 -0.121,-0.4630208 z m 0.3827928,-2.2489584 c 0.084036,-0.7276042 0.197068,-1.3725261 0.2511827,-1.4331599 0.1859439,-0.2083438 0.045499,1.4335829 -0.1791661,2.0946182 -0.1516078,0.4460767 -0.1750575,0.2306947 -0.072017,-0.6614583 z m 0.1669759,-4.2333335 c 0.00148,-0.8731251 0.05088,-1.1984147 0.1097655,-0.7228658 0.058886,0.4755489 0.057671,1.1899239 -0.0027,1.5875001 -0.060371,0.3975761 -0.1085506,0.00849 -0.1070655,-0.8646343 z m 52.6421601,-0.396875 c 0,-0.6548438 0.051598,-0.9227345 0.1146622,-0.5953126 0.063064,0.3274219 0.063064,0.8632032 0,1.1906251 -0.063064,0.3274219 -0.1146622,0.059531 -0.1146622,-0.5953125 z m -0.2948699,-1.8520835 c 0,-0.3638021 0.060053,-0.5126302 0.1334521,-0.3307291 0.073399,0.181901 0.073399,0.4795573 0,0.6614583 -0.073399,0.1819011 -0.1334521,0.033073 -0.1334521,-0.3307292 z m -52.586759,-4.8947918 c 3.439e-4,-2.3283334 0.040812,-3.2454145 0.089949,-2.037958 0.049137,1.2074563 0.048863,3.1124563 -6.085e-4,4.2333335 -0.049472,1.1208769 -0.089675,0.1329579 -0.08934,-2.1953755 z m 52.3221757,3.5718751 c 0,-0.3638021 0.060053,-0.5126302 0.1334521,-0.3307292 0.073399,0.1819011 0.073399,0.4795574 0,0.6614584 -0.073399,0.1819011 -0.1334521,0.033073 -0.1334521,-0.3307292 z m -0.2449756,-1.5875 c 0,-0.509323 0.05445,-0.7176824 0.121,-0.4630209 0.06655,0.2546615 0.06655,0.6713802 0,0.9260417 -0.06655,0.2546615 -0.121,0.046302 -0.121,-0.4630208 z m -0.2645834,-2.1166668 c 0,-0.5093229 0.05445,-0.7176823 0.1210001,-0.4630208 0.06655,0.2546614 0.06655,0.6713802 0,0.9260417 -0.06655,0.2546614 -0.1210001,0.046302 -0.1210001,-0.4630209 z m 0.2699227,-2.2489584 c 0.00294,-0.5820834 0.057119,-0.7890545 0.120406,-0.4599361 0.063287,0.3291187 0.060884,0.8053687 -0.00534,1.0583334 -0.066223,0.2529649 -0.1180031,-0.016314 -0.115066,-0.5983973 z m 0.2645833,-2.1166668 c 0.00294,-0.5820833 0.05712,-0.7890544 0.120406,-0.459936 0.063287,0.3291186 0.060884,0.8053686 -0.00534,1.0583333 -0.066223,0.252965 -0.1180033,-0.016314 -0.115066,-0.5983973 z M 36.127624,16.7821424 c 0,-2.255573 0.040579,-3.1783075 0.090175,-2.0505209 0.049596,1.1277865 0.049596,2.9732553 0,4.1010418 -0.049596,1.1277865 -0.090175,0.2050521 -0.090175,-2.0505209 z M 89.0448998,16.120684 c 3.439e-4,-2.3283334 0.040812,-3.2454145 0.089949,-2.037958 0.049137,1.2074563 0.048863,3.1124564 -6.086e-4,4.2333335 -0.049472,1.120877 -0.089675,0.1329579 -0.08934,-2.1953755 z M 36.127624,8.5800587 c 0,-2.255573 0.040579,-3.17830742 0.090175,-2.05052091 0.049596,1.1277865 0.049596,2.97325533 0,4.10104181 -0.049596,1.1277865 -0.090175,0.2050521 -0.090175,-2.0505209 z m 53.1615788,0.66145836 c 0.00116,-1.01864587 0.048996,-1.40294339 0.106272,-0.8539946 0.057276,0.54894906 0.056315,1.38238659 -0.00214,1.85208344 -0.05845,0.4696971 -0.1053116,0.020558 -0.1041379,-0.99808884 z M 89.248607,6.48553599 C 89.2231832,6.13391319 88.2555831,3.93125685 87.0983838,1.59074413 83.7816406,-5.11759008 82.1062654,-10.2441757 80.3325056,-19.1125914 c -1.209299,-6.0462345 -1.6668419,-9.7901407 -1.9381563,-15.8592243 -0.1242891,-2.7802487 -0.3101977,-5.1912644 -0.4131302,-5.3578127 -0.1029324,-0.1665481 -0.6409891,-0.3028149 -1.1956814,-0.3028149 h -1.0085314 l -0.1794883,1.9182293 c -0.2278131,2.4346874 -1.0848067,4.24324 -2.9814025,6.2917898 -1.3755021,1.4857066 -1.4662976,1.6699752 -1.6863417,3.4224146 -0.3428879,2.7307724 -1.7055217,6.5484415 -3.7792957,10.588391 -2.3687053,4.6145098 -3.3571825,6.1673941 -5.0279397,7.8988249 -2.698459,2.79645331 -6.1325954,4.77646224 -14.8377064,8.55492882 -6.032382,2.618364396 -9.9221898,4.69289943 -10.4706565,5.58427172 l -0.4521822,0.73488976 0.126483,-1.31633309 c 0.1509255,-1.57071252 -0.366581,-13.28637621 -0.7606043,-17.21907241 -0.3786979,-3.779736 -1.709292,-11.9742479 -2.2340269,-13.7583339 -0.4443521,-1.5107873 -7.873833,-16.5299238 -12.1719165,-24.606251 -3.1691448,-5.9549916 -4.926861,-9.8713116 -6.3531173,-14.1552089 -1.6200303,-4.8659157 -2.197734,-8.0542247 -2.5047819,-13.8237264 -0.3678489,-6.9119696 -0.6197565,-7.8920257 -3.17861444,-12.3665282 -3.35062195,-5.8590066 -3.61173924,-7.4784507 -1.50746751,-9.3492787 0.60190671,-0.535133 1.93434203,-1.831266 2.96096765,-2.880296 1.026626,-1.049031 2.1844926,-2.024729 2.5730372,-2.168219 0.3885449,-0.143491 1.5494043,-0.285505 2.5796875,-0.315589 1.0302836,-0.03008 1.8732426,-0.155713 1.8732426,-0.279177 0,-0.123463 0.2772437,-0.224479 0.6160969,-0.224479 0.8792207,0 2.9665559,1.460719 3.6366243,2.544912 0.6689858,1.082442 0.6227215,2.089402 -0.4355719,9.4804229 -0.9907214,6.919105 -1.0312855,6.6006402 1.7418635,13.675207 1.311207,3.3450139 2.9343591,7.2824678 3.6070045,8.7498981 0.6726455,1.46743 1.7886365,4.3180004 2.4799801,6.3346007 0.7530187,2.1965018 1.5610581,4.0456732 2.0153913,4.6121562 0.8877218,1.1068509 3.533139,4.7479254 5.3671446,7.3871802 1.743931,2.5096315 2.304437,2.9709733 5.9502011,4.8974957 1.7328354,0.9156779 3.9117281,2.185951 4.841984,2.8228293 0.9302557,0.6368781 1.7880074,1.0982379 1.9061142,1.0252436 0.1181071,-0.072994 0.1552197,-1.2706311 0.082473,-2.6614156 -0.1009605,-1.9301707 -0.034584,-2.7616005 0.2804303,-3.5126759 0.6513642,-1.5530188 1.0126112,-3.4489929 0.8589875,-4.5083216 -0.1330338,-0.9173472 -0.124611,-0.9315522 0.1458434,-0.2459681 0.1578668,0.4001823 0.3666101,0.7276042 0.4638738,0.7276042 0.097264,0 0.4742953,-0.5648412 0.8378474,-1.2552029 0.3635523,-0.6903617 1.4798124,-2.1191118 2.480578,-3.1750002 1.0007658,-1.0558883 1.6722421,-1.9197971 1.4921695,-1.9197971 -0.9879351,0 -4.4569848,3.0625302 -5.0790848,4.4838936 -0.1590058,0.3632941 -0.1819955,0.3640257 -0.1984375,0.00631 -0.010229,-0.222522 0.7255444,-1.185013 1.6350496,-2.138869 1.3536594,-1.4196682 2.1312214,-1.9616971 4.2862334,-2.9878791 1.4479233,-0.6894775 3.3499459,-1.4373744 4.2267169,-1.6619927 3.1064906,-0.7958461 7.0840684,-0.077233 10.0740289,1.8200355 0.7276042,0.4616982 1.8586979,0.9209228 2.5135417,1.0204985 l 1.190625,0.1810469 -0.9921875,0.035352 c -0.9919081,0.035342 -1.2824148,0.4330412 -0.7241315,0.9913245 0.1810191,0.1810192 0.1698857,0.5496676 -0.034289,1.1353628 -0.3965927,1.1376666 -0.16089,3.6845332 0.538784,5.8217848 0.3052654,0.9324763 0.5242134,1.7202113 0.486551,1.7505223 -0.037663,0.030311 -1.2791816,0.1188077 -2.7589311,0.1966595 -2.1413671,0.1126604 -2.8067664,0.06008 -3.2603699,-0.2576362 -0.3134537,-0.2195515 -1.4244682,-0.5463225 -2.468921,-0.726158 l -1.8990053,-0.3269734 1.0798474,-0.1894414 c 0.767113,-0.1345772 1.4042797,-0.059629 2.2000882,0.2587903 0.7940429,0.317713 1.2024836,0.3659891 1.4026806,0.1657921 0.4144714,-0.4144714 0.1116049,-0.9598274 -1.0059562,-1.8113714 -0.8305297,-0.6328363 -1.2168775,-0.7474813 -2.378003,-0.7056507 -3.033454,0.109283 -4.474513,1.0286223 -3.4268963,2.1862257 0.4086016,0.4514999 0.3805695,0.4882928 -0.4975304,0.6530253 -0.5117907,0.096013 -1.2818973,0.4702258 -1.7113483,0.831585 l -0.7808198,0.6570168 -0.9781122,-0.663765 c -1.1255973,-0.7638508 -2.502588,-1.1968978 -3.8125959,-1.1990156 -0.6146411,-0.00101 -0.8255108,-0.088777 -0.6455505,-0.2687375 0.1799606,-0.1799606 0.7283786,-0.1798132 1.6789088,4.498e-4 1.5268718,0.2895666 2.1284126,0.065863 2.1284126,-0.7915212 0,-0.741376 -0.662086,-1.0965741 -2.3250856,-1.2473697 -1.4620296,-0.1325722 -1.6069411,-0.091624 -2.523426,0.7130606 -0.5347769,0.4695404 -0.9723218,0.9730168 -0.9723218,1.1188361 0,0.1458196 -0.2976562,0.6188708 -0.6614583,1.0512249 -0.3987834,0.4739272 -0.6614583,1.1166258 -0.6614583,1.61842 v 0.832321 l 0.4476845,-0.6541839 c 0.6617004,-0.9669174 0.8536183,-1.0425777 2.6558155,-1.0470074 2.1078796,-0.00518 3.7215644,0.6143067 3.9477569,1.51553 0.2145671,0.8549027 -0.577511,3.3837561 -1.2798229,4.086068 -0.4516083,0.4516083 -0.7902432,0.5209106 -2.0870079,0.4271111 -1.8175473,-0.1314694 -2.5045474,-0.6300381 -2.9019902,-2.1060273 -0.4102778,-1.5236556 -0.8330901,-1.271009 -0.6238029,0.372746 0.097273,0.7639844 0.2758504,1.5819023 0.3968396,1.8175953 0.3433363,0.668836 1.9163501,1.291259 3.2633242,1.291259 2.3034588,0 3.7854557,-1.0752839 4.4252793,-3.2108244 0.318112,-1.0617637 0.7517572,-1.376225 0.7517572,-0.5451428 0,0.2625516 0.3588618,1.0432328 0.7974706,1.7348473 0.9709689,1.5310592 2.018013,2.0232424 4.2872604,2.0153091 2.9610585,-0.010351 4.7360414,-1.3106408 5.1388002,-3.7645018 l 0.1628505,-0.9921876 h 2.0828508 c 1.1455681,0 2.0828508,0.044991 2.0828508,0.09998 0,0.054989 -0.1823812,0.5364798 -0.4052919,1.0699798 -0.2229107,0.5335003 -0.3349464,1.083822 -0.2489684,1.222937 0.4545764,0.7355206 1.7497351,-0.089086 3.4785107,-2.2147099 0.6660756,-0.8189762 1.810875,-0.9590191 1.9973298,-0.2443324 0.066438,0.2546615 -0.022786,1.4750521 -0.1982751,2.7119793 -0.6661041,4.6949838 -0.6699573,4.7625002 -0.2717951,4.7625002 0.2049505,0 0.6954018,-0.3869532 1.0898916,-0.8598959 0.4687323,-0.5619499 0.5805781,-0.6307066 0.3227956,-0.1984375 -0.2169523,0.3638021 -0.7989779,0.9365023 -1.2933905,1.272667 -1.1838554,0.8049364 -1.2541348,1.1085831 -0.2565829,1.1085831 1.1580736,0 9.0231529,-3.9980287 13.1609452,-6.6900581 3.321935,-2.1612364 3.4807806,-2.3088533 6.347991,-5.8992611 l 2.9407977,-3.6825565 2.1190839,-7.8052086 c 4.161898,-15.3294994 4.480511,-17.8563306 2.851283,-22.6127205 -0.941521,-2.7486886 -1.471825,-5.7246122 -1.471825,-8.2594943 0,-1.1408359 0.187327,-1.8166338 0.846235,-3.0528721 1.042602,-1.9561217 2.110169,-2.6038547 3.476976,-2.1096107 0.480554,0.173771 1.315589,0.315947 1.855635,0.315947 1.251731,0 2.375835,0.474451 4.43142,1.8703722 3.335286,2.2649492 4.716027,4.0084099 4.729757,5.9722571 0.0032,0.4571444 -0.698118,2.9194665 -1.558475,5.4718269 -2.262958,6.7133525 -2.436156,8.3498944 -1.847378,17.4557733 0.45355,7.0144675 -0.235118,10.6337856 -3.447554,18.1187592 -2.342006,5.4568701 -4.26944,8.7408426 -9.566499,16.2994476 -0.905741,1.292441 -2.4733612,4.0308786 -3.483601,6.0854169 -1.0102397,2.0545381 -2.4835315,4.8798546 -3.2739816,6.278481 -2.3710178,4.1952915 -2.9250402,6.2512083 -3.801604,14.1073392 -0.2911295,2.6092249 -0.9409848,6.77641257 -1.4441226,9.260417044 C 89.9035518,2.71123316 89.4475546,5.27938149 89.3933627,5.93422526 89.3391707,6.58906904 89.2740305,6.83715879 89.248607,6.48553599 Z M 63.8782805,-26.2054668 c 2.0266951,-0.4294521 4.7160588,-1.6665684 6.0448474,-2.7806503 1.2022497,-1.007989 0.8118035,-1.2716391 -0.6310122,-0.4260927 -4.0855387,2.3942851 -9.4958718,2.6043743 -13.1561266,0.5108668 -1.7883116,-1.0228369 -4.0633923,-3.5634365 -5.1316679,-5.7305718 -1.3085672,-2.6545975 -1.7540221,-4.6040131 -1.7540221,-7.6760139 0,-2.207998 -0.058099,-2.5744237 -0.3674795,-2.3176606 -0.9487718,0.7874103 -1.2355582,4.8767094 -0.5642126,8.0451254 0.80586,3.803257 3.6971168,8.1422367 6.3340784,9.5057061 2.3922445,1.2369359 5.9212959,1.5694645 9.2255951,0.869291 z m -1.2641162,-4.5171841 c 1.6254387,-0.4725278 3.5694681,-1.7805432 3.5694681,-2.4016711 0,-0.4893713 -0.3858098,-0.4304636 -2.6458333,0.4039801 -0.9784604,0.3612661 -2.1053192,0.5382165 -3.4395833,0.5401173 -2.9177856,0.00416 -4.6151139,-0.9039512 -6.0539882,-3.2390156 -0.6320078,-1.0256483 -1.2920408,-1.194888 -1.1347508,-0.2909623 0.1880772,1.0808568 1.2815689,2.8620142 2.283632,3.7197431 1.852313,1.5855109 4.6714717,2.0671344 7.4210555,1.2678085 z m 17.1425042,-15.4660426 c 0,-0.8003646 0.0496,-1.1277865 0.1102228,-0.7276042 0.060623,0.4001823 0.060623,1.0550261 0,1.4552084 -0.060622,0.4001823 -0.1102228,0.07276 -0.1102228,-0.7276042 z m -17.4094944,-0.1902987 c -0.8235598,-0.200634 -1.3982814,-0.833574 -1.8638544,-2.0526595 -0.9616943,-2.5181606 0.067437,-3.5767178 3.4780183,-3.5774642 2.192922,-4.763e-4 3.4590289,0.3695724 3.6834228,1.0765745 0.2676777,0.8433777 -0.1720257,2.9016887 -0.7672297,3.5915051 -0.7806759,0.9047708 -2.9096687,1.3568731 -4.530357,0.9620441 z m 17.6067474,-1.4370749 c -0.00657,-0.094691 0.2845374,-0.8090659 0.6469179,-1.5875 0.3623805,-0.7784344 0.6546567,-1.2367412 0.6495026,-1.0184599 -0.00931,0.3941797 -1.2735401,2.9354382 -1.2964205,2.6059599 z m 1.3109609,-3.2869765 c 0,-0.099632 0.5357813,-0.6800927 1.190625,-1.2899118 1.2371412,-1.1520801 1.57211,-2.3042535 0.873125,-3.0032385 -0.212413,-0.212413 -0.2217822,-0.3175 -0.028307,-0.3175 0.3587438,0 0.6103909,0.6234377 0.6103909,1.5122007 0,0.460188 -0.4212336,1.0898127 -1.3229167,1.9773853 -0.7276042,0.7162176 -1.3229167,1.2206966 -1.3229172,1.1210643 z m 0.3046961,-4.5802602 c -0.1962193,-0.1243497 -0.3152818,-0.4186389 -0.2645834,-0.653976 0.069577,-0.3229684 0.1671696,-0.2665381 0.3980148,0.230142 0.1682097,0.3619148 0.2872722,0.656204 0.2645834,0.6539757 -0.022688,-0.00222 -0.2017956,-0.1057921 -0.3980148,-0.2301417 z m -0.6393961,-1.684036 c -0.062818,-0.181901 0.011845,-0.6116627 0.1659186,-0.955026 0.2295721,-0.5116182 0.1893253,-0.6906969 -0.2229876,-0.9921875 -0.2767161,-0.2023399 -0.7482547,-0.369714 -1.0478633,-0.3719423 -0.6450758,-0.0048 -0.8986028,-0.1719638 -1.5989398,-1.0542818 -0.48671,-0.6131804 -0.4663421,-0.6083525 0.2790611,0.066146 0.4422502,0.4001823 1.0522768,0.7276042 1.3556147,0.7276042 0.3033376,0 0.8179633,0.21575 1.1436122,0.4794446 0.4675894,0.3786309 0.5462974,0.6150774 0.3743153,1.1244792 -0.1197755,0.354769 -0.1892125,0.7938628 -0.1543039,0.9757638 0.034908,0.1819011 0.00864,0.3307292 -0.058372,0.3307292 -0.067013,0 -0.1732378,-0.1488281 -0.2360553,-0.3307294 z m -4.840251,-4.3140753 c -0.5053724,-0.4048872 -0.5051232,-0.4075761 0.015576,-0.1680443 0.2910417,0.133885 0.7077604,0.3096472 0.9260417,0.3905829 0.3428323,0.1271178 0.3407111,0.1500005 -0.015576,0.1680443 -0.2268482,0.011488 -0.643567,-0.164274 -0.9260417,-0.3905829 z"
         id="path871" />
      <path
         style="display:inline;fill:#9d705a;stroke-width:0.264583"
         d="m 86.1234249,155.444325 c -1.4792135,-0.67169 -3.1049635,-2.186234 -4.4106577,-4.108953 -0.5953418,-0.87668 -1.5612453,-2.131125 -2.1464526,-2.787656 -0.8979003,-1.007335 -0.9261705,-1.069774 -0.1810808,-0.399943 0.4856128,0.436562 1.5324328,1.7145 2.3262672,2.839861 1.7357002,2.460577 3.1576621,3.728732 4.9573166,4.421109 0.7386169,0.284166 1.1643461,0.520255 0.9460648,0.524641 -0.2182812,0.0044 -0.8894371,-0.21569 -1.4914575,-0.489059 z m 10.0918489,-0.43544 c 0.5507251,-0.373732 1.231724,-0.939279 1.5133309,-1.256771 l 0.5120127,-0.577258 -0.3877138,0.610836 c -0.4179258,0.658435 -1.9801076,1.902706 -2.388846,1.902706 -0.137556,0 0.2004912,-0.305781 0.7512162,-0.679513 z m -61.0540372,-0.307966 c 0.6184635,-0.0557 1.6304948,-0.0557 2.2489583,0 0.6184636,0.0557 0.1124479,0.10128 -1.1244791,0.10128 -1.2369271,0 -1.7429427,-0.04558 -1.1244792,-0.10128 z m 4.8998272,0.01037 c 0.2574309,-0.06708 0.6146184,-0.06267 0.79375,0.0098 0.1791314,0.07247 -0.031494,0.127362 -0.4680564,0.12197 -0.4365625,-0.0054 -0.5831247,-0.06469 -0.3256936,-0.131774 z m -7.2810772,-0.256457 c 0.181901,-0.0734 0.4795573,-0.0734 0.6614583,0 0.1819011,0.0734 0.033073,0.133452 -0.3307291,0.133452 -0.3638021,0 -0.5126302,-0.06005 -0.3307292,-0.133452 z m 8.554861,0.07878 c 0.060634,-0.05305 0.4078994,-0.238211 0.7717015,-0.411471 0.6236938,-0.297033 0.6321362,-0.291527 0.1478677,0.09645 -0.4214807,0.337675 -1.2826632,0.632692 -0.9195692,0.315018 z m -11.0022568,-0.741477 c -0.7824907,-0.43278 -1.7197917,-1.331124 -1.7197917,-1.648312 0,-0.152534 0.1943695,1.67e-4 0.4319323,0.339335 0.2375628,0.339168 0.9221721,0.839296 1.5213542,1.111394 0.599182,0.272098 0.9108281,0.493719 0.6925468,0.492489 -0.2182812,-0.0012 -0.635,-0.133937 -0.9260416,-0.294906 z m 14.0229166,-1.543321 c 0.8640144,-0.873125 1.6304665,-1.5875 1.7032269,-1.5875 0.07276,0 -0.5746292,0.714375 -1.4386435,1.5875 -0.8640144,0.873126 -1.6304665,1.587501 -1.7032269,1.587501 -0.07276,0 0.5746292,-0.714375 1.4386435,-1.587501 z m 54.1281798,-0.15434 c 0.012695,-0.308224 0.075391,-0.370919 0.1598525,-0.159852 0.07643,0.190996 0.067031,0.419199 -0.020889,0.507118 -0.087919,0.08792 -0.1504529,-0.06835 -0.1389635,-0.347266 z m -70.0634085,-1.43316 c 0,-0.654843 0.051598,-0.922734 0.1146623,-0.595312 0.063064,0.327422 0.063064,0.863203 0,1.190625 -0.063064,0.327422 -0.1146623,0.05953 -0.1146623,-0.595313 z m 70.0634085,-0.94809 c 0.012695,-0.308224 0.075391,-0.370919 0.1598525,-0.159852 0.07643,0.190996 0.067031,0.419199 -0.020889,0.507118 -0.087919,0.08792 -0.1504529,-0.06835 -0.1389635,-0.347266 z m -50.5563048,-0.110243 c 0.2182813,-0.141064 0.5159375,-0.25648 0.6614584,-0.25648 0.1455208,0 0.08599,0.115416 -0.1322917,0.25648 -0.2182813,0.141064 -0.5159375,0.25648 -0.6614583,0.25648 -0.1455209,0 -0.08599,-0.115416 0.1322916,-0.25648 z m 2.2629384,-1.124479 c 0.6954245,-0.472943 1.4827867,-1.274757 1.7496933,-1.78181 0.2669066,-0.507052 0.485285,-0.770754 0.485285,-0.586003 0,0.831392 -2.4088564,3.227709 -3.2445994,3.227709 -0.1401332,0 0.3141964,-0.386953 1.0096211,-0.859896 z m 47.4272634,-1.029206 c -0.392108,-0.852765 -0.6620042,-1.550482 -0.5997697,-1.550482 0.1919603,0 1.4801707,2.674868 1.3939073,2.894339 -0.044668,0.113643 -0.4020299,-0.491093 -0.7941376,-1.343857 z m -68.4756184,0.432913 c 0,-0.07876 0.8985678,-1.104031 1.9968175,-2.278392 1.0982497,-1.174361 2.3046965,-2.600439 2.6809928,-3.169061 0.6982484,-1.055124 1.0974633,-1.406703 0.6481821,-0.570838 -0.5529038,1.02865 -5.3259924,6.422168 -5.3259924,6.018291 z m 49.034737,-2.909436 c 0.00116,-1.018646 0.048996,-1.402944 0.106272,-0.853995 0.057276,0.548949 0.056315,1.382387 -0.00214,1.852083 -0.05845,0.469697 -0.1053116,0.02056 -0.1041379,-0.998088 z m -25.9742106,-0.396875 c 0,-0.363803 0.060053,-0.512631 0.1334521,-0.33073 0.073399,0.181901 0.073399,0.479558 0,0.661459 -0.073399,0.181901 -0.1334521,0.03307 -0.1334521,-0.330729 z m 42.2857869,-2.157687 c -0.57891,-0.895686 -1.0511293,-1.758889 -1.0493764,-1.918229 0.00175,-0.15934 0.2972549,0.224667 0.6566712,0.853349 0.3594164,0.628682 0.9018709,1.491885 1.2054546,1.918229 0.3035837,0.426344 0.4817351,0.775171 0.3958921,0.775171 -0.085843,0 -0.6297316,-0.732834 -1.2086415,-1.62852 z m -42.5712586,0.945013 c 0.012695,-0.308225 0.075391,-0.370919 0.1598525,-0.159853 0.076431,0.190997 0.067031,0.4192 -0.020889,0.507119 -0.087919,0.08792 -0.150453,-0.06835 -0.1389635,-0.347266 z m 26.4792217,-0.903993 c 0,-0.363802 0.060053,-0.51263 0.1334521,-0.330729 0.073399,0.181901 0.073399,0.479557 0,0.661458 -0.073399,0.181901 -0.1334521,0.03307 -0.1334521,-0.330729 z m -27.0052234,-0.817803 c -0.1789221,-0.597189 -0.2766058,-1.134506 -0.2170745,-1.194037 0.059531,-0.05953 0.2546297,0.38037 0.4335518,0.977559 0.1789221,0.597189 0.2766057,1.134506 0.2170745,1.194037 -0.059531,0.05953 -0.2546297,-0.38037 -0.4335518,-0.977559 z m 27.3073164,-1.563447 c 0,-0.800365 0.0496,-1.127787 0.1102228,-0.727605 0.060623,0.400183 0.060623,1.055027 0,1.455209 -0.060622,0.400182 -0.1102228,0.07276 -0.1102228,-0.727604 z m -43.8508169,0.716193 c 0.099359,-0.260938 0.2473039,-0.407781 0.3287657,-0.326319 0.081462,0.08146 1.677e-4,0.294955 -0.1806533,0.474431 -0.2613067,0.259363 -0.2916978,0.228972 -0.1481124,-0.148112 z m 16.0111689,-1.135117 c 0.012695,-0.308224 0.075391,-0.370919 0.1598525,-0.159852 0.07643,0.190996 0.067031,0.419199 -0.020889,0.507118 -0.087919,0.08792 -0.1504529,-0.06835 -0.1389635,-0.347266 z m -15.3586183,-0.242535 c 0,-0.145521 0.115416,-0.443177 0.2564802,-0.661458 0.1410642,-0.218281 0.2564802,-0.277813 0.2564802,-0.132292 0,0.145521 -0.115416,0.443177 -0.2564802,0.661459 -0.1410642,0.218281 -0.2564802,0.277812 -0.2564802,0.132291 z m 57.4273683,-0.551215 c 0.012695,-0.308224 0.075391,-0.370919 0.1598525,-0.159852 0.07643,0.190996 0.067031,0.419199 -0.020889,0.507118 -0.087919,0.08792 -0.1504529,-0.06835 -0.1389635,-0.347266 z m -42.3333334,-0.264583 c 0.012695,-0.308225 0.075391,-0.37092 0.1598525,-0.159853 0.076431,0.190996 0.067031,0.419199 -0.020889,0.507118 -0.087919,0.08792 -0.1504529,-0.06835 -0.1389635,-0.347265 z m 43.9150959,-1.43316 c -0.8969942,-0.945886 -1.7436053,-1.690026 -1.8813579,-1.653646 -0.1377527,0.03638 -0.2504594,-0.05292 -0.2504594,-0.198438 0,-0.14552 0.1153258,-0.264583 0.2562794,-0.264583 0.447525,0 -0.028753,-0.793266 -0.4830244,-0.804503 -0.2390923,-0.0059 -0.851432,-0.376164 -1.360755,-0.822778 -0.5093229,-0.446614 -0.6781244,-0.686401 -0.3751146,-0.532859 0.3030101,0.153541 0.7045418,0.46426 0.8922928,0.690487 0.6857407,0.826267 1.3349052,0.333834 1.3349052,-1.012611 0,-1.223446 -1.1948951,-1.614508 -2.1166667,-0.692736 -0.4115742,0.411574 -0.5291667,0.440972 -0.5291667,0.132292 0,-0.218282 -0.1251378,-0.396875 -0.2780842,-0.396875 -0.6556724,0 -1.0174817,-1.74386 -0.8614592,-4.15209 0.1086014,-1.676282 0.063107,-2.442452 -0.1529583,-2.575988 -0.1691444,-0.104537 -0.8695822,0.02458 -1.5565287,0.286927 -1.5423756,0.589039 -5.6936045,0.656724 -7.5340736,0.122843 -0.7543679,-0.218827 -1.3925961,-0.271371 -1.5999699,-0.131722 -0.1897448,0.127777 -0.1113975,0.01875 0.1741054,-0.242274 0.2887379,-0.263985 0.7052191,-0.402209 0.9385115,-0.311478 2.0656201,0.803356 6.6105624,0.771816 8.3505974,-0.05795 0.955245,-0.455525 0.9936276,-0.453982 1.3799304,0.05544 0.3116776,0.411014 0.3669022,1.024962 0.2561209,2.847369 -0.1714466,2.820386 0.1447882,4.028222 0.9835332,3.756536 1.6070086,-0.520542 2.1922052,-0.456091 2.7929277,0.307604 0.4466733,0.567853 0.5457793,0.939968 0.4116996,1.545813 -0.097124,0.43886 -0.1957263,0.939101 -0.2191166,1.111648 -0.042315,0.312155 1.139208,1.860465 2.5486085,3.339788 0.4064789,0.426644 0.6875431,0.910235 0.6245871,1.074645 -0.062956,0.164411 -0.8483698,-0.474978 -1.7453639,-1.420863 z m -16.0790594,0.132292 c 0.00198,-0.727605 0.05337,-0.993858 0.1141854,-0.591675 0.060816,0.402183 0.05919,0.997496 -0.00361,1.322917 -0.062802,0.325421 -0.1125601,-0.0036 -0.1105739,-0.731242 z m -42.3973143,0.846756 c -0.00643,-0.116367 0.1770321,-0.576532 0.4076969,-1.022588 0.4847022,-0.937311 0.4111086,-1.032326 -1.282306,-1.655557 -1.8357038,-0.675597 -2.3323357,-1.92916 -1.1876053,-2.997669 1.0181788,-0.950384 1.8905239,-0.999862 3.5254689,-0.199957 0.8077055,0.395173 1.5109352,0.676117 1.5627324,0.62432 0.051797,-0.0518 0.2184448,-0.808337 0.3703275,-1.6812 l 0.2761506,-1.587022 -0.1284734,1.5875 c -0.07791,0.962707 -0.2822371,1.703112 -0.5191628,1.881252 -0.214879,0.161563 -0.390689,0.527762 -0.390689,0.813775 0,0.554862 -1.0219045,1.670598 -1.5301029,1.670598 -0.1679551,0 -0.2410735,0.167561 -0.1624857,0.372357 0.078588,0.204797 -0.098481,0.829875 -0.3934854,1.389063 -0.2950048,0.559188 -0.5416344,0.921495 -0.5480658,0.805128 z m 2.0966273,-3.701344 c 0.3855101,-0.702027 0.3730461,-0.762879 -0.2562375,-1.251016 -1.3032452,-1.010931 -3.1726392,-0.988607 -3.7255358,0.04449 -0.3597108,0.672125 0.2651173,1.444188 1.4550575,1.797928 1.330325,0.395473 2.0813094,0.219698 2.5267158,-0.591402 z m 54.5542889,3.251463 c 0,-0.363803 0.060053,-0.512631 0.1334521,-0.33073 0.073399,0.181901 0.073399,0.479558 0,0.661459 -0.073399,0.181901 -0.1334521,0.03307 -0.1334521,-0.330729 z m -42.3333334,-0.264584 c 0,-0.363802 0.060053,-0.51263 0.1334521,-0.330729 0.073399,0.181901 0.073399,0.479557 0,0.661458 -0.073399,0.181901 -0.1334521,0.03307 -0.1334521,-0.330729 z m 42.06875,-1.058333 c 0,-0.363802 0.060053,-0.51263 0.1334521,-0.330729 0.073399,0.181901 0.073399,0.479557 0,0.661458 -0.073399,0.181901 -0.1334521,0.03307 -0.1334521,-0.330729 z M 78.9390071,132.76266 c -0.049778,-2.413713 -0.1356032,-2.837629 -0.8491247,-4.194055 -0.4365625,-0.829918 -0.7775358,-1.824274 -0.7577185,-2.20968 l 0.036032,-0.700737 0.1085379,0.661459 c 0.059696,0.363802 0.4648253,1.379615 0.9002877,2.257363 0.746057,1.503803 0.7867176,1.748115 0.7045552,4.233334 l -0.087194,2.637428 z m -28.8642661,1.114665 c -0.01688,-0.281663 -0.2884649,-0.786501 -0.6035206,-1.121862 -0.4862269,-0.517565 -0.525371,-0.700145 -0.2589189,-1.207678 0.4955236,-0.943864 1.6254976,-2.423606 1.6254976,-2.128647 0,0.147031 -0.3571875,0.716791 -0.79375,1.266134 -0.9427432,1.186288 -0.9636644,1.372529 -0.2406372,2.142156 0.3100766,0.330062 0.4979482,0.802583 0.4275669,1.075386 -0.1166008,0.451954 -0.1277324,0.450138 -0.1562378,-0.02549 z m -10.2737674,-5.573303 c 0.00198,-0.727604 0.05337,-0.993858 0.1141855,-0.591675 0.060816,0.402183 0.05919,0.997496 -0.00361,1.322917 -0.062802,0.325421 -0.1125601,-0.0036 -0.1105739,-0.731242 z m 10.4086745,-0.501677 c -0.2687672,-0.499071 -0.4235267,-1.207887 -0.3587686,-1.643201 0.1118989,-0.752199 0.1145743,-0.750393 0.1535266,0.103666 0.021804,0.478062 0.2343647,1.166388 0.4723579,1.529611 0.2379933,0.363224 0.3815998,0.711522 0.3191256,0.773996 -0.062474,0.06248 -0.3262828,-0.281358 -0.5862415,-0.764072 z m -10.4354058,-2.159733 c -0.029244,-0.799777 0.099551,-1.54157 0.320005,-1.843059 0.3596323,-0.491827 0.4071477,-0.492525 1.8818127,-0.02768 1.2016129,0.378775 2.2007875,0.460052 4.8565726,0.395052 l 3.3437082,-0.08184 0.048854,0.654257 c 0.02687,0.359841 -0.00712,0.469314 -0.075525,0.243273 -0.1058569,-0.349783 -0.5894758,-0.394402 -3.2476035,-0.29963 -2.4018081,0.08563 -3.476312,0.0087 -4.651842,-0.333027 -0.8407395,-0.244409 -1.6868177,-0.383674 -1.8801741,-0.309476 -0.2120527,0.08137 -0.3903078,0.691584 -0.4492107,1.537761 l -0.097654,1.402856 z M 65.9524869,70.9118811 c -1.233682,-0.6212581 -1.8920106,-1.3203394 -1.8751648,-1.9912439 0.0057,-0.226848 0.1708444,-0.043806 0.3669964,0.4067614 0.4266697,0.980072 1.9810206,1.6943293 3.6871627,1.6943293 2.2310293,0 11.8488312,-1.3484511 14.2585879,-1.9991063 1.3456785,-0.3633449 3.5777821,-0.9536446 4.96023,-1.3117772 1.3824479,-0.3581326 2.8409635,-0.8379865 3.2411458,-1.0663421 0.9699186,-0.5534631 0.9224002,-0.3642244 -0.097973,0.3901702 -0.4540676,0.3357066 -1.4958644,0.7590486 -2.3151041,0.94076 -0.8192397,0.1817113 -2.991163,0.7528108 -4.8264959,1.2691094 -2.3592035,0.663669 -4.9772644,1.1390893 -8.9350545,1.6225389 -6.5869053,0.8045995 -6.9517022,0.8065302 -8.4643305,0.0448 z M 41.7096741,68.9040168 c -1.74625,-0.2705939 -3.7612344,-0.6194499 -4.477743,-0.7752361 -1.2947105,-0.2815008 -2.269132,-0.8999863 -2.269132,-1.4402649 0,-0.1553462 0.1758162,-0.031435 0.3907025,0.2753582 0.4870202,0.6953189 0.6090071,0.7238095 6.0915892,1.4227255 3.7731075,0.4809929 5.2866795,0.5485471 9.3927083,0.419217 7.659044,-0.2412416 10.377846,-0.462065 11.1125,-0.9025674 0.5274077,-0.3162364 0.502254,-0.2613152 -0.1241182,0.2710016 -0.701182,0.5958936 -1.0991204,0.6856408 -3.7041666,0.8354005 -7.5346851,0.4331571 -13.1693444,0.3968906 -16.4123402,-0.1056344 z m 20.7738432,-1.7343234 c 0.00595,-0.3657222 0.4757722,-1.048003 0.621388,-0.9023872 0.068775,0.068775 -0.043814,0.3559736 -0.2501971,0.6382198 -0.2063832,0.2822458 -0.3734192,0.4011213 -0.3711909,0.2641674 z m 1.2035843,-0.5683256 c -0.1435854,-0.3770836 -0.1131943,-0.4074747 0.1481125,-0.1481124 0.180821,0.1794759 0.262115,0.39297 0.1806532,0.4744318 -0.081462,0.081462 -0.2294064,-0.065382 -0.3287657,-0.3263194 z M 91.6352127,64.539436 c 0.00539,-0.4365626 0.06469,-0.5831248 0.1317736,-0.3256937 0.067083,0.2574309 0.062672,0.6146184 -0.0098,0.7937501 -0.072475,0.1791314 -0.127362,-0.031494 -0.1219698,-0.4680564 z M 35.0496195,62.1581859 c 0.00116,-1.0186459 0.048996,-1.4029434 0.106272,-0.8539946 0.057276,0.548949 0.056315,1.3823866 -0.00214,1.8520834 -0.05845,0.4696971 -0.1053116,0.020558 -0.1041379,-0.9980888 z m 56.3601314,-0.5291667 c 9.525e-4,-1.1641667 0.047477,-1.6075039 0.1033693,-0.9851938 0.055892,0.62231 0.055105,1.5748101 -0.00175,2.1166667 -0.056854,0.5418567 -0.102584,0.032694 -0.101623,-1.1314729 z M 35.303057,58.9831857 c 0.00198,-0.7276042 0.05337,-0.9938578 0.1141854,-0.5916745 0.060816,0.4021831 0.05919,0.9974956 -0.00361,1.3229168 -0.062802,0.3254208 -0.1125601,-0.00364 -0.1105738,-0.7312423 z M 91.1211892,58.454019 c 0.00294,-0.5820833 0.05712,-0.7890544 0.120406,-0.459936 0.063286,0.3291186 0.060884,0.8053687 -0.00534,1.0583333 -0.066223,0.252965 -0.1180033,-0.016314 -0.115066,-0.5983973 z M 35.5291585,57.263394 c 0,-0.2182813 0.1023258,-0.635 0.2273906,-0.9260417 0.1433288,-0.3335441 0.2273906,-0.3824497 0.2273906,-0.1322917 0,0.2182813 -0.1023258,0.635 -0.2273906,0.9260417 -0.1433288,0.3335441 -0.2273906,0.3824497 -0.2273906,0.1322917 z m 55.3123042,-0.6614584 c 0.00539,-0.4365625 0.06469,-0.5831247 0.1317736,-0.3256936 0.067083,0.2574309 0.062672,0.6146184 -0.0098,0.79375 -0.072475,0.1791314 -0.127362,-0.031494 -0.1219698,-0.4680564 z M 36.1031186,54.2206855 c 0.00148,-0.873125 0.05088,-1.1984146 0.1097656,-0.7228657 0.058886,0.4755488 0.057671,1.1899239 -0.0027,1.5875 -0.060371,0.3975762 -0.1085506,0.00849 -0.1070656,-0.8646343 z m 54.497855,0.2645834 c 0.00198,-0.7276042 0.05337,-0.9938579 0.1141855,-0.5916745 0.060816,0.4021831 0.05919,0.9974956 -0.00361,1.3229167 -0.062802,0.3254208 -0.1125601,-0.00364 -0.1105739,-0.7312422 z M 35.8358352,51.1779771 c 0,-0.8003646 0.0496,-1.1277865 0.1102228,-0.7276042 0.060623,0.4001823 0.060623,1.0550261 0,1.4552084 -0.060622,0.4001823 -0.1102228,0.07276 -0.1102228,-0.7276042 z m 0.2368775,-2.2489584 c 0.00539,-0.4365626 0.06469,-0.5831248 0.1317736,-0.3256937 0.067083,0.2574309 0.062672,0.6146184 -0.0098,0.7937501 -0.072475,0.1791314 -0.127362,-0.031494 -0.1219698,-0.4680564 z m 54.2636776,-1.3229168 c 0.00198,-0.7276042 0.05337,-0.9938578 0.1141854,-0.5916745 0.060816,0.4021831 0.05919,0.9974957 -0.00361,1.3229168 -0.062802,0.3254208 -0.1125601,-0.00364 -0.1105739,-0.7312423 z m -53.9892904,-0.396875 c 0,-0.5093229 0.05445,-0.7176823 0.121,-0.4630208 0.06655,0.2546614 0.06655,0.6713802 0,0.9260417 -0.06655,0.2546614 -0.121,0.046302 -0.121,-0.4630209 z M 89.87854,45.2101527 c -0.099612,-0.5309781 -0.1281965,-1.0183316 -0.06352,-1.0830074 0.064676,-0.064676 0.1990934,0.3168441 0.2987053,0.8478224 0.099612,0.530978 0.1281965,1.0183315 0.06352,1.0830074 -0.064676,0.064676 -0.1990934,-0.3168442 -0.2987053,-0.8478224 z m -53.3073528,0.257234 c 0.012695,-0.3082245 0.075391,-0.3709194 0.1598525,-0.1598526 0.07643,0.1909961 0.067031,0.4191993 -0.020889,0.5071182 -0.087919,0.087919 -0.1504529,-0.068351 -0.1389635,-0.3472656 z m -0.2097969,-2.0946183 c 0.00198,-0.7276042 0.05337,-0.9938578 0.1141854,-0.5916745 0.060816,0.4021831 0.05919,0.9974956 -0.00361,1.3229168 -0.062802,0.3254208 -0.1125601,-0.00364 -0.1105739,-0.7312423 z m 52.9732838,-0.9260417 c -0.102634,-0.7462377 -0.1307214,-1.4126813 -0.062416,-1.4809862 0.068304,-0.068305 0.2055328,0.4889985 0.3049513,1.2384514 0.099418,0.7494532 0.1275059,1.4158969 0.062416,1.4809862 -0.065089,0.065089 -0.2023173,-0.4922136 -0.3049513,-1.2384514 z M 36.0629088,41.12381 c 0,-0.3638021 0.060053,-0.5126302 0.1334521,-0.3307292 0.073399,0.1819011 0.073399,0.4795573 0,0.6614584 -0.073399,0.181901 -0.1334521,0.033073 -0.1334521,-0.3307292 z m 52.9715243,-3.3072918 c 6.88e-4,-1.4552084 0.04512,-2.016764 0.098735,-1.2479015 0.053616,0.7688625 0.053052,1.9594876 -0.00124,2.6458334 -0.054313,0.6863459 -0.098181,0.057277 -0.097492,-1.3979319 z M 36.3433936,39.53631 c -0.00271,-0.3638021 0.090396,-0.9591147 0.2069055,-1.3229168 0.1659943,-0.5183172 0.2107689,-0.5469453 0.2069055,-0.1322916 -0.00271,0.2910416 -0.095819,0.8863542 -0.2069055,1.3229167 -0.1814219,0.7129767 -0.2024769,0.726439 -0.2069055,0.1322917 z m 0.5681229,-4.6302086 c 6.879e-4,-1.4552084 0.04512,-2.016764 0.098735,-1.2479015 0.053616,0.7688625 0.053052,1.9594876 -0.00124,2.6458335 -0.054313,0.6863458 -0.098181,0.057276 -0.097492,-1.397932 z m 52.311754,-0.5512152 c 0.012695,-0.3082245 0.075391,-0.3709194 0.1598525,-0.1598525 0.076431,0.1909961 0.067031,0.4191992 -0.020889,0.5071182 -0.087919,0.087919 -0.150453,-0.068351 -0.1389635,-0.3472657 z m -0.5038521,-3.0343053 c -0.1870898,-1.1890111 -0.2913031,-2.2106986 -0.2315848,-2.2704169 0.1576141,-0.1576141 0.798344,3.7524686 0.6753606,4.1214187 -0.056987,0.17096 -0.2566858,-0.6619907 -0.4437758,-1.8510018 z M 36.6596188,27.2331845 c 2.646e-4,-2.6193751 0.039873,-3.6551496 0.08799,-2.3017214 0.048117,1.3534285 0.04789,3.4965535 -5.027e-4,4.7625002 -0.048394,1.2659469 -0.087763,0.1585963 -0.087485,-2.4607788 z m 20.6282727,1.6041897 c -1.2408252,-0.5400366 -1.6875924,-1.3622606 -1.6875924,-3.1058201 0,-1.8353376 0.3916905,-2.7793141 1.3612879,-3.2807125 0.8278214,-0.4280829 3.9303788,-0.516848 3.9303788,-0.112449 0,0.1455208 -0.6250782,0.2663386 -1.3890625,0.2684838 -1.8645786,0.00524 -2.6351529,0.4393722 -3.0586839,1.7232419 -0.4156035,1.2598385 -0.2339335,2.4657948 0.5148609,3.4177326 0.4968534,0.6316467 0.6980894,0.692912 2.0435673,0.6221537 l 1.4924432,-0.078487 v -1.0583333 c 0,-0.9288868 -0.080904,-1.0691641 -0.6614584,-1.1468831 -1.3187103,-0.1765364 -1.1722666,-0.5729087 0.2116667,-0.5729087 h 1.3758333 v 1.6914842 c 0,1.298337 -0.097274,1.728812 -0.4185144,1.8520835 -0.7284374,0.2795278 -2.857036,0.1537012 -3.7147265,-0.219586 z m 10.8192419,0.1836266 c -1.0089023,-0.1768824 -1.7306107,-1.3634964 -1.568486,-2.5788623 0.176706,-1.3246725 0.9501373,-1.9870792 2.32013,-1.9870792 1.2086793,0 2.087355,0.7239493 2.087355,1.7197918 0,0.700038 -0.044458,0.7202212 -1.7506098,0.7947419 -1.6465219,0.071916 -2.0339542,0.2804475 -1.6956127,0.9126443 0.1975853,0.3691917 0.6738927,0.5767623 1.607748,0.7006426 0.7298415,0.096817 1.2932416,0.2025933 1.2520004,0.2350588 -0.1990338,0.1566804 -1.7299133,0.2946873 -2.2525249,0.2030621 z m 1.6267346,-2.6098739 c 0.9385424,-0.3601527 0.1018349,-1.4269009 -1.1191947,-1.4269009 -0.64965,0 -1.2151728,0.662322 -1.0137367,1.1872556 0.1562235,0.4071123 1.3476726,0.5409774 2.1329314,0.2396453 z m 4.1940988,2.6203983 c -0.3245224,-0.062684 -0.8418746,-0.4334233 -1.1496715,-0.8238644 -0.7128156,-0.9042078 -0.5601721,-2.5926609 0.297148,-3.2868766 0.6209956,-0.5028517 2.8977725,-0.6608884 2.8977725,-0.2011415 0,0.1455208 -0.4577969,0.2645833 -1.0173261,0.2645833 -1.1951634,0 -1.8930906,0.6237444 -1.8930906,1.6918735 0,1.2328581 0.4304795,1.7004874 1.7471583,1.8979357 0.8235217,0.1234945 1.1011358,0.2556224 0.8592079,0.408932 -0.3692882,0.2340179 -0.7291054,0.2440522 -1.7411985,0.048558 z M 46.3398824,25.5133927 c 0,-2.8810186 0.06445,-3.4395835 0.396875,-3.4395835 0.3086807,0 0.396875,0.3527778 0.396875,1.5875001 0,1.000024 0.1102088,1.5875001 0.2978105,1.5875001 0.1637956,0 0.9846686,-0.7441407 1.8241619,-1.6536459 1.7874162,-1.9364829 2.4296129,-1.8940501 0.7995909,0.052832 l -1.114198,1.330787 1.1571603,1.6563674 c 1.6251602,2.3262663 1.6209314,2.3178258 1.1612478,2.3178258 -0.2218553,0 -0.9071642,-0.714375 -1.5229089,-1.5875001 -0.6157444,-0.873125 -1.2679394,-1.5875 -1.4493221,-1.5875 -0.55767,0 -1.1535424,1.1237934 -1.1535424,2.1755381 0,0.7120218 -0.1141391,0.999462 -0.396875,0.999462 -0.3324251,0 -0.396875,-0.5585648 -0.396875,-3.439583 z m 16.66875,1.6285073 c 0,-2.0976194 0.473891,-2.8022445 1.7625394,-2.6207088 l 0.7510023,0.105796 -0.8333893,0.3275536 c -0.9262063,0.3640347 -1.1420206,0.8797254 -1.1473728,2.7416645 -0.00199,0.691224 -0.1226754,1.2567709 -0.2681962,1.2567709 -0.1506199,0 -0.2645834,-0.7800809 -0.2645834,-1.8110762 z m 14.8106779,1.083472 c -0.4480645,-0.568401 -0.5427515,-0.958581 -0.4327462,-1.7832335 0.180903,-1.3561368 0.9449581,-1.9870792 2.406301,-1.9870792 1.4924321,0 2.2657673,0.7959951 2.2657673,2.332157 0,1.5519922 -0.6693947,2.1657599 -2.3620465,2.1657599 -1.1067981,0 -1.3903449,-0.1098987 -1.8772756,-0.7276042 z m 2.9029681,-0.00206 c 0.6496534,-0.5260578 0.7914383,-1.7505881 0.3074143,-2.6549954 -0.382773,-0.7152177 -1.7380535,-0.7958998 -2.4559559,-0.1462069 -0.6546355,0.5924392 -0.6303155,2.0614924 0.045312,2.7371203 0.6524993,0.6524993 1.35031,0.6737612 2.1032293,0.064084 z m 7.4884941,-0.4609571 c 0.00294,-0.5820833 0.05712,-0.7890544 0.1204061,-0.459936 0.063287,0.3291186 0.060884,0.8053686 -0.00534,1.0583333 -0.066223,0.252965 -0.1180031,-0.016314 -0.1150661,-0.5983973 z m 0.00534,-3.5718751 c 0,-0.6548438 0.051598,-0.9227344 0.1146622,-0.5953125 0.063064,0.3274219 0.063064,0.8632031 0,1.190625 -0.063064,0.3274219 -0.1146622,0.059531 -0.1146622,-0.5953125 z m 0.2592438,-2.2489584 c 0.00294,-0.5820834 0.05712,-0.7890545 0.120406,-0.4599361 0.063287,0.3291187 0.060884,0.8053687 -0.00534,1.0583334 -0.066223,0.2529649 -0.1180032,-0.016314 -0.115066,-0.5983973 z M 36.3901087,18.5019341 c 4.233e-4,-2.0372917 0.041946,-2.8357545 0.092295,-1.774362 0.050349,1.0613927 0.050012,2.7282678 -7.408e-4,3.7041668 -0.050762,0.9758992 -0.091958,0.107487 -0.091545,-1.9298048 z m 52.3902075,-1.8520834 c 3.439e-4,-2.3283334 0.040812,-3.2454145 0.089949,-2.037958 0.049137,1.2074563 0.048863,3.1124564 -6.086e-4,4.2333335 -0.049472,1.1208769 -0.089675,0.1329579 -0.08934,-2.1953755 z m 0.2481844,-6.6145836 c 9.525e-4,-1.16416672 0.047477,-1.60750389 0.1033693,-0.98519381 0.055892,0.62231008 0.055106,1.57481011 -0.00175,2.11666671 -0.056854,0.5418567 -0.1025838,0.032694 -0.1016228,-1.1314729 z M 36.3270503,5.93422526 c -0.05936,-2.19481885 0.4311634,-2.77801107 3.822424,-4.54455363 1.5857141,-0.826014645 4.7966252,-2.332406156 7.1353577,-3.34753651 8.705111,-3.77846658 12.1392474,-5.75847551 14.8377064,-8.55492882 1.6707572,-1.7314308 2.6592344,-3.2843151 5.0279397,-7.8988249 2.073774,-4.0399495 3.4364078,-7.8576186 3.7792957,-10.588391 0.2200441,-1.7524394 0.3108396,-1.936708 1.6863417,-3.4224146 1.8965958,-2.0485498 2.7535894,-3.8571024 2.9814025,-6.2917898 l 0.1794883,-1.9182293 h 1.0085314 c 0.5546923,0 1.092749,0.1362668 1.1956814,0.3028149 0.1029325,0.1665483 0.2888411,2.577564 0.4131302,5.3578127 0.2713144,6.0690836 0.7288573,9.8129898 1.9381563,15.8592243 1.7737598,8.8684157 3.449135,13.99500132 6.7658782,20.70333553 1.1571993,2.34051272 2.0937648,4.48363781 2.0812569,4.76250019 -0.017042,0.37994935 -0.074015,0.33814175 -0.227321,-0.16681213 C 88.8398009,5.81582316 88.4466076,5.03557217 88.0785563,4.45254134 84.8242418,-0.702626464 81.8868737,-9.04993728 79.9411612,-18.6720257 78.5888485,-25.359587 78.1490628,-28.870727 77.9527473,-34.5470264 c -0.1975731,-5.712652 -0.2172459,-5.8208335 -1.0585307,-5.8208335 -0.3610295,0 -0.658776,0.1488281 -0.6616586,0.3307291 -0.020794,1.3121099 -0.6170216,4.1061684 -1.0625992,4.9795729 -0.2956362,0.5794949 -1.180855,1.8119847 -1.967153,2.7388662 -1.2362112,1.4572354 -1.4688974,1.9127005 -1.7198489,3.366473 -0.986795,5.7165401 -5.6503308,15.3623733 -9.1357828,18.8960138 -2.7570954,2.79521403 -5.9452579,4.62480601 -14.8164873,8.5027427 -4.716023,2.061545041 -9.776724,4.61257827 -10.451221,5.26832401 -0.2232663,0.21705941 -0.4660308,1.1051514 -0.554967,2.03020674 l -0.158092,1.64436511 z M 57.0555074,-26.18858 c -2.0580601,-0.5099596 -3.355799,-1.3074566 -4.9769125,-3.0584528 -2.587525,-2.7948359 -4.1362683,-6.8799501 -4.1466182,-10.9375185 -0.00523,-2.0512607 0.4103957,-3.9925068 0.9508429,-4.441038 0.3093804,-0.2567631 0.3674795,0.1096626 0.3674795,2.3176606 0,3.0720008 0.4454549,5.0214164 1.7540221,7.6760139 1.0682756,2.1671353 3.3433563,4.7077349 5.1316679,5.7305718 3.6602548,2.0935075 9.0705879,1.8834183 13.1561266,-0.5108668 1.4428157,-0.8455464 1.8332619,-0.5818963 0.6310122,0.4260927 -3.0463567,2.5541241 -8.800904,3.8052146 -12.8676205,2.7975371 z m 0.3887732,-4.5314981 c -2.0639172,-0.6362372 -4.1829434,-2.9680261 -4.5348038,-4.9901244 -0.15729,-0.9039257 0.502743,-0.734686 1.1347508,0.2909623 1.4388743,2.3350644 3.1362026,3.2431719 6.0539882,3.2390156 1.3342641,-0.00191 2.4611229,-0.1788512 3.4395833,-0.5401173 2.2600235,-0.8344437 2.6458333,-0.8933514 2.6458333,-0.4039801 0,0.6211279 -1.9440294,1.9291433 -3.5694681,2.4016711 -1.7080407,0.4965409 -3.5644828,0.4974649 -5.1698837,0.00257 z m 20.0246546,-12.7566361 c 0.089474,-0.691224 0.3062624,-2.2688022 0.4817523,-3.5057293 0.1754899,-1.2369272 0.2647135,-2.4573178 0.1982751,-2.7119793 -0.1864548,-0.7146867 -1.3312542,-0.5746438 -1.9973298,0.2443324 -1.7287756,2.1256242 -3.0239343,2.9502305 -3.4785107,2.2147099 -0.085978,-0.139115 0.026059,-0.6894367 0.2489684,-1.222937 0.2229107,-0.5335 0.4052919,-1.0149909 0.4052919,-1.0699798 0,-0.054989 -0.9372827,-0.09998 -2.0828508,-0.09998 h -2.0828508 l -0.1628505,0.9921876 c -0.4027588,2.453861 -2.1777417,3.75415 -5.1388002,3.7645018 -2.2692474,0.00793 -3.3162915,-0.4842499 -4.2872604,-2.0153091 -0.4386088,-0.6916145 -0.7974706,-1.4722957 -0.7974706,-1.7348473 0,-0.8310822 -0.4336452,-0.5166209 -0.7517572,0.5451428 -0.6398236,2.1355405 -2.1218205,3.2108244 -4.4252793,3.2108244 -1.3469741,0 -2.9199879,-0.622423 -3.2633242,-1.291259 -0.1209892,-0.235693 -0.2995671,-1.0536109 -0.3968396,-1.8175953 -0.2092872,-1.643755 0.2135251,-1.8964016 0.6238029,-0.372746 0.3974428,1.4759892 1.0844429,1.9745579 2.9019902,2.1060273 1.2967647,0.0938 1.6353996,0.024498 2.0870079,-0.4271111 0.7023119,-0.7023119 1.49439,-3.2311653 1.2798229,-4.086068 -0.2261925,-0.9012233 -1.8398773,-1.5207113 -3.9477569,-1.51553 -1.8021972,0.00443 -1.9941151,0.08009 -2.6558155,1.0470074 l -0.4476845,0.6541839 v -0.832321 c 0,-0.5017942 0.2626749,-1.1444928 0.6614583,-1.61842 0.3638021,-0.4323541 0.6614583,-0.9054053 0.6614583,-1.0512249 0,-0.1458193 0.4375449,-0.6492957 0.9723218,-1.1188361 0.9164849,-0.8046842 1.0613964,-0.8456328 2.523426,-0.7130606 1.6629996,0.1507956 2.3250856,0.5059937 2.3250856,1.2473697 0,0.8573844 -0.6015408,1.0810878 -2.1284126,0.7915225 -0.9505302,-0.1802643 -1.4989482,-0.1804117 -1.6789088,-4.498e-4 -0.1799603,0.1799603 0.030909,0.2677441 0.6455505,0.2687376 1.3100079,0.00212 2.6869986,0.4351647 3.8125959,1.1990155 l 0.9781122,0.663765 0.7808198,-0.6570168 c 0.429451,-0.3613592 1.1995576,-0.7355724 1.7113483,-0.8315849 0.8780999,-0.1647325 0.906132,-0.2015255 0.4975304,-0.6530253 -1.0476167,-1.1576035 0.3934423,-2.0769428 3.4268963,-2.1862257 1.1611255,-0.041831 1.5474733,0.072814 2.378003,0.7056506 1.1175611,0.851544 1.4204276,1.3969001 1.0059562,1.8113714 -0.200197,0.200197 -0.6086377,0.1519209 -1.4026806,-0.1657921 -0.7958085,-0.3184194 -1.4329752,-0.3933674 -2.2000882,-0.2587903 l -1.0798474,0.1894414 1.8990053,0.3269732 c 1.0444528,0.1798354 2.1554673,0.5066064 2.468921,0.7261579 0.4536035,0.3177162 1.1190028,0.3702966 3.2603699,0.2576362 1.4797495,-0.077852 2.7212685,-0.1663485 2.7589311,-0.1966595 0.037662,-0.030311 -0.1812856,-0.8180459 -0.486551,-1.7505223 -0.699674,-2.1372516 -0.9353767,-4.6841181 -0.538784,-5.8217847 0.2041744,-0.5856952 0.2153078,-0.9543437 0.034289,-1.1353629 -1.007322,-1.0073219 1.0300073,-1.3280139 2.7114658,-0.426806 0.5430205,0.2910417 1.206186,0.5291667 1.4737009,0.5291667 0.2675146,0 0.8046461,0.3571875 1.1936248,0.79375 0.3889791,0.4365626 0.6009471,0.7937501 0.4710399,0.7937501 -0.129907,0 -0.4312264,-0.2976563 -0.6695988,-0.6614584 -0.2383724,-0.3638021 -0.6692159,-0.6614583 -0.9574303,-0.6614583 -0.2882146,0 -0.968316,-0.2381251 -1.5113365,-0.5291667 -0.5430207,-0.2910417 -1.3206846,-0.5291667 -1.7281419,-0.5291667 -0.650485,0 -0.7074249,0.062421 -0.4669012,0.5118431 0.1848945,0.3454789 0.1879203,0.7380658 0.00931,1.2078494 -0.3935621,1.0351469 -0.3210708,2.9944598 0.1765991,4.7731565 0.2426711,0.8673188 0.4510304,1.9936617 0.4630208,2.5029847 l 0.021802,0.9260417 -2.9727014,0.074775 c -2.4908246,0.062654 -3.0893592,-0.00167 -3.6923642,-0.396875 -0.5697635,-0.3734113 -1.2732231,-0.4716516 -3.3772983,-0.4716516 -3.0921068,0 -3.7812559,0.1520246 -4.8799345,1.0765018 l -0.8078742,0.6797813 -0.8661636,-0.6598082 c -1.3668912,-1.041242 -5.7809,-1.7917473 -6.6783603,-1.1355083 -0.3439827,0.2515264 -0.034434,0.2951615 1.5325394,0.2160328 2.4525986,-0.1238504 4.1886613,0.5215988 4.6034703,1.7115201 0.3267345,0.9372711 -0.2150663,3.3194851 -0.9996567,4.3953349 -0.2918428,0.4001824 -0.416501,0.7276042 -0.2770179,0.7276042 0.4657301,0 1.161271,-0.9000217 1.7843645,-2.3089466 0.3393678,-0.767371 0.7315145,-1.3952202 0.8714367,-1.3952202 0.1399223,0 0.6238111,0.7740225 1.0753085,1.72005 0.5546968,1.162263 1.069622,1.8486671 1.5878762,2.1166667 1.1054406,0.5716459 4.089576,0.5101165 5.4609556,-0.1125982 1.1035424,-0.5010951 1.228644,-0.7103975 2.3445425,-3.922556 0.1338278,-0.3852291 4.0076003,-0.465151 4.5922054,-0.094744 0.2993679,0.1896798 0.3019494,0.3874823 0.015399,1.1799237 -0.5627378,1.5562237 -0.035879,1.4587088 1.5916698,-0.2945982 1.5550078,-1.6751605 2.4272383,-2.0454674 3.1397284,-1.3329772 0.4811284,0.4811284 0.3771966,2.5507435 -0.3471892,6.9136572 -0.1663514,1.0019202 0.3416065,0.8126788 0.9715736,-0.3619627 0.2809772,-0.5239123 0.4868656,-1.4502472 0.4868656,-2.1905104 0,-0.846944 0.2696498,-1.8970695 0.79375,-3.0911841 0.4365625,-0.994668 0.79375,-1.9312996 0.79375,-2.0814036 0,-0.1501042 0.433927,-0.6038887 0.9642822,-1.0084105 0.5303551,-0.4045214 1.1210073,-1.0951901 1.3125603,-1.5348191 0.2507403,-0.575468 0.3511786,-0.6563067 0.3586345,-0.2886496 0.0057,0.2808716 -0.5086437,0.9952467 -1.1429767,1.5875001 -0.6343333,0.5922534 -1.2449228,1.3744805 -1.3568656,1.7382826 -0.1119429,0.3638021 -0.4446098,1.1377084 -0.7392601,1.7197918 -0.2946504,0.5820833 -0.6204977,1.9190037 -0.7241051,2.9709341 -0.1460857,1.483214 -0.3479144,2.1217648 -0.8989967,2.844271 -1.0386465,1.3617358 -1.5078507,1.2448154 -1.3046367,-0.3251007 z m -24.321544,-2.0780818 c -0.087919,-0.087919 -0.316122,-0.097319 -0.5071181,-0.020889 -0.2110669,0.084462 -0.148372,0.1471568 0.1598525,0.1598526 0.2789147,0.011488 0.4351843,-0.051046 0.3472656,-0.1389636 z m -0.3820541,-8.6846731 c 0.4431906,-0.2857717 0.8761672,-0.3208203 1.7766287,-0.1438145 1.7010687,0.334383 1.8520833,0.3147147 1.8520833,-0.2412183 0,-0.5690325 -0.680284,-0.8156663 -2.2645344,-0.8209958 -1.068474,-0.0036 -1.5447425,0.2376731 -2.2126196,1.1208664 -0.4389483,0.5804601 0.010364,0.6255599 0.848442,0.085162 z m 15.0057953,0.1593959 c 0,-0.3405603 -1.1281473,-1.2893099 -1.7607473,-1.4807537 -0.6985026,-0.2113881 -3.7836403,0.258604 -4.1585533,0.633517 -0.1862103,0.1862104 -0.1715966,0.3723021 0.046352,0.5902511 0.2480133,0.2480133 0.7300579,0.2476931 2.1829448,-0.00146 1.5711212,-0.2694173 1.9770757,-0.2587162 2.5788861,0.06798 0.8255772,0.4481698 1.1111174,0.4971137 1.1111174,0.1904547 z m -5.159375,8.1674243 c -1.4027708,-0.3254526 -1.9278994,-0.7719323 -2.4183461,-2.0561492 -0.6431333,-1.68402 -0.6304788,-3.188429 0.030887,-3.6720321 1.8783462,-1.3734802 6.9730734,-1.0886308 7.7330544,0.4323599 0.6479444,1.2967656 -0.1903085,4.0751367 -1.4472666,4.7969341 -0.8754626,0.5027269 -2.8130238,0.7506857 -3.8983287,0.4988873 z m 2.6458334,-0.5330886 c 0.5820833,-0.1344309 1.3110564,-0.5373154 1.6199403,-0.8952988 0.595204,-0.6898164 1.0349074,-2.7481274 0.7672297,-3.5915051 -0.2243939,-0.7070021 -1.4905008,-1.0770545 -3.6834228,-1.0765745 -3.4105813,7.408e-4 -4.4397126,1.0593036 -3.4780183,3.5774642 0.780869,2.0446771 2.1156843,2.5999092 4.7742711,1.9859142 z m 17.9784375,-8.7131079 c -0.1382448,-0.1313961 -0.4894792,-0.2961783 -0.7805209,-0.3661831 -0.501946,-0.1207339 -0.5002101,-0.12886 0.033749,-0.1579735 0.3096037,-0.01688 0.7111354,0.1479019 0.8922927,0.3661831 0.3591706,0.432774 0.2585397,0.5420162 -0.1455208,0.1579735 z m -2.0896427,-0.6209943 c -0.056039,-0.1819011 -0.1749814,-0.6879167 -0.2643166,-1.1244792 -0.1196613,-0.5847597 -0.091715,-0.689255 0.1061413,-0.3968751 0.1477132,0.2182813 0.2703922,0.6548438 0.2726206,0.9701391 0.00222,0.3152949 0.1528797,0.6333172 0.3347807,0.7067158 0.2590427,0.1045261 0.257243,0.1379797 -0.00831,0.1543405 -0.186468,0.011488 -0.384883,-0.1279401 -0.440922,-0.3098411 z m -30.1479873,-1.4107021 c -0.08833,-0.2301832 -0.158776,-0.6171364 -0.1565476,-0.8598958 0.00349,-0.3799896 0.038836,-0.3863592 0.2541362,-0.045795 0.2145292,0.339344 0.306799,0.3205356 0.6489922,-0.1322916 0.2193989,-0.2903329 0.402694,-0.6059099 0.4073221,-0.7012822 0.00463,-0.095373 0.4290383,-0.6768581 0.9431338,-1.2921906 0.5140957,-0.6153322 0.8592182,-1.1921443 0.7669387,-1.2818039 -0.092279,-0.08966 -0.3640746,0.1126421 -0.6039901,0.4495604 -0.55553,0.7801425 -2.1560012,2.4603939 -2.1560012,2.2634735 0,-0.3730403 2.2707008,-2.6962141 3.389003,-3.4673187 2.0300479,-1.3997822 2.0885361,-0.9890737 0.1503627,1.0558555 -1.0007656,1.0558884 -2.1170257,2.4846385 -2.480578,3.1750002 -0.709471,1.3472383 -0.9111637,1.4923691 -1.1627718,0.8366882 z m 29.8402539,-1.3530575 c 0.017777,-0.5120211 0.1250939,-0.7502398 0.2720768,-0.6039451 0.1472121,0.1465231 0.1356612,0.4792338 -0.029355,0.8455303 -0.2532997,0.5622648 -0.2700507,0.5455923 -0.2427218,-0.2415852 z m -1.2274156,-1.0494899 c 0.181901,-0.073399 0.4795573,-0.073399 0.6614583,0 0.1819011,0.073399 0.033073,0.1334521 -0.3307291,0.1334521 -0.3638021,0 -0.5126302,-0.060053 -0.3307292,-0.1334521 z"
         id="path869" />
      <path
         style="display:inline;fill:#181826;stroke-width:0.264583"
         d="m 89.3346741,156.316639 c -0.4365625,-0.06476 -1.031875,-0.224907 -1.3229167,-0.355892 -0.2910416,-0.130985 -1.0709968,-0.466788 -1.7332338,-0.746228 -1.5830312,-0.667982 -2.96096,-1.905596 -4.273383,-3.838225 -0.5876534,-0.865358 -1.6657138,-2.232885 -2.3956894,-3.03895 l -1.3272289,-1.465572 0.2100268,-2.669292 c 0.1155147,-1.46811 0.2471656,-3.978978 0.2925572,-5.579708 0.045392,-1.600729 0.1528808,-4.164651 0.2388648,-5.697603 0.1534586,-2.735916 0.141441,-2.815501 -0.6533105,-4.326347 -0.8868807,-1.685988 -1.0273747,-2.827432 -0.4109781,-3.338996 0.3198733,-0.265471 0.6467039,-0.258913 1.6536459,0.03318 1.8404691,0.533881 5.991698,0.466196 7.5340736,-0.122843 0.6869464,-0.262347 1.3873843,-0.391464 1.5565287,-0.286927 0.2160656,0.133536 0.2615597,0.899706 0.1529582,2.575988 -0.1560224,2.40823 0.2057869,4.15209 0.8614593,4.15209 0.1529464,0 0.2780877,0.26789 0.2780919,0.595312 8.5e-6,0.631419 1.5270636,2.050521 2.2065067,2.050521 0.2104872,0 0.4512369,0.178594 0.5349992,0.396875 0.083763,0.218281 0.020577,0.396875 -0.1404123,0.396875 -0.1983184,0 -0.2388026,0.458648 -0.1255445,1.422299 0.2996504,2.549556 1.1447537,4.714241 2.7019403,6.920869 1.7402197,2.465996 3.1771125,5.291794 3.4190763,6.723967 0.5434679,3.216758 -2.3906747,5.941849 -6.6826072,6.206487 -0.9799209,0.06042 -2.138862,0.05687 -2.5754245,-0.0079 z m -53.7104167,-1.686878 c -4.925958,-0.335881 -7.0114583,-1.490054 -7.0114583,-3.880334 0,-1.739456 0.5451557,-2.744586 2.7912211,-5.146309 1.1205191,-1.198174 2.414755,-2.782664 2.8760798,-3.521088 1.1571603,-1.852222 2.8898959,-5.87685 2.6778754,-6.219906 -0.095878,-0.155133 -0.00946,-0.28206 0.1920465,-0.28206 0.51454,0 1.5169439,-1.128441 1.5169439,-1.707676 0,-0.26562 0.1714354,-0.615134 0.3809674,-0.776697 0.4752327,-0.366437 0.9419492,-3.67188 0.9419492,-6.671201 0,-1.661044 0.094333,-2.274317 0.3658624,-2.378512 0.2012241,-0.07722 1.0537399,0.05958 1.8944794,0.303986 1.1767981,0.342105 2.2501228,0.418657 4.663486,0.332611 l 3.1348694,-0.111769 -0.1607484,1.21178 c -0.127788,0.963312 -0.043326,1.410798 0.4119216,2.182384 0.6319633,1.071098 0.54118,1.456733 -0.6918873,2.93904 -0.7641651,0.918625 -0.7729551,1.174132 -0.066272,1.926362 0.4460854,0.474836 0.5986555,1.105306 0.772459,3.192052 0.1295355,1.555249 0.5578605,3.770066 1.0657303,5.510765 0.4670322,1.600729 0.8610975,3.33964 0.8757012,3.864246 0.042557,1.528776 -1.0384993,2.677322 -3.7184055,3.950544 -1.6284019,0.773652 -2.7905792,1.568363 -4.0288247,2.754959 -0.9571355,0.917212 -2.0974341,1.847078 -2.5339966,2.06637 -1.1093264,0.557231 -2.9612407,0.691518 -6.3499998,0.460453 z M 65.7496975,70.5127087 c -0.8413618,-0.382047 -1.1690913,-0.7207055 -1.4131827,-1.4603096 -0.1747843,-0.5296014 -0.263049,-1.1068294 -0.1961441,-1.2827289 0.066905,-0.1758997 0.022064,-0.5877081 -0.099646,-0.91513 -0.3046331,-0.8195183 -1.238771,-0.7858562 -1.4491147,0.05222 -0.3518678,1.4019536 -1.2841605,1.554674 -11.6251781,1.9043394 -4.033053,0.1363713 -5.4981383,0.069531 -9.525,-0.4345538 -5.3033883,-0.6638806 -5.7859861,-0.7883065 -6.2227354,-1.6043802 -0.3939985,-0.7361929 0.1260094,-8.2078863 0.7141744,-10.2615592 0.2994279,-1.0455003 0.3604522,-2.011312 0.2340467,-3.7041668 -0.1112769,-1.4902424 -0.039975,-3.1468514 0.2041774,-4.7437865 0.2791552,-1.825883 0.3134058,-3.0695951 0.1338358,-4.8598502 -0.1900992,-1.8952284 -0.1529512,-2.8392957 0.1749909,-4.4471583 0.3698637,-1.8133998 0.3804864,-3.1163931 0.095196,-11.6766091 C 36.3373365,13.9432991 36.3294331,4.9130804 36.7550599,4.16068686 37.2094677,3.35741606 40.716143,1.4904001 47.1336324,-1.36504844 61.4608604,-7.739919 62.8314645,-8.89017021 67.8520425,-18.7525493 c 1.7821667,-3.5008723 3.126395,-7.276969 3.6309144,-10.1996694 0.2509515,-1.4537725 0.4836377,-1.9092376 1.7198489,-3.366473 0.786298,-0.9268815 1.6715168,-2.1593713 1.967153,-2.7388662 0.4455776,-0.8734045 1.0418064,-3.667463 1.0625992,-4.9795729 0.00288,-0.181901 0.3006291,-0.3307291 0.6616586,-0.3307291 0.8412848,0 0.8609576,0.1081815 1.0585307,5.8208335 0.1963155,5.6762994 0.6361012,9.1874394 1.9884139,15.8750007 1.9783327,9.78340436 4.6347538,17.31664117 8.163678,23.15104257 0.8472633,1.4007881 0.9546569,1.77421203 0.9131033,3.17500013 -0.041125,1.38633179 -0.4454671,10.4422084 -0.7940085,17.7830585 -0.077407,1.6303197 0.031326,3.2070663 0.3284227,4.7625002 0.2878069,1.5067939 0.4648523,3.9550783 0.5029798,6.9554842 0.046878,3.6890554 0.1777064,5.1411202 0.6436374,7.1437502 0.3966728,1.7049497 0.6282793,3.7477088 0.7199585,6.3500003 0.074337,2.1100522 0.3061419,5.146146 0.5151215,6.7468753 0.2089793,1.6007292 0.4108603,4.1963294 0.4486246,5.7680005 0.065856,2.7407699 0.042843,2.877133 -0.5629513,3.335812 -0.3473876,0.2630255 -1.8356689,0.7885497 -3.3072917,1.1678315 -1.4716231,0.3792818 -3.7766879,0.9880243 -5.1223664,1.3527612 -2.4652653,0.6681928 -12.0751484,2.0066114 -14.3300881,1.9958262 -0.6681896,-0.0032 -1.7078172,-0.2296398 -2.3102835,-0.5032084 z M 77.9543599,-43.4554531 c 0.7243858,-4.3629137 0.8283176,-6.4325288 0.3471892,-6.9136572 -0.7124901,-0.7124902 -1.5847206,-0.3421833 -3.1397284,1.3329772 -1.6275489,1.753307 -2.1544076,1.8508219 -1.5916698,0.2945982 0.2865506,-0.7924414 0.2839691,-0.9902439 -0.015399,-1.1799237 -0.5846051,-0.3704069 -4.4583776,-0.290485 -4.5922054,0.094744 -1.1158985,3.2121585 -1.2410001,3.4214609 -2.3445425,3.922556 -1.3713796,0.6227147 -4.355515,0.6842441 -5.4609556,0.1125982 -0.5182542,-0.2679996 -1.0331794,-0.9544037 -1.5878762,-2.1166667 -0.4514974,-0.9460275 -0.9353862,-1.72005 -1.0753085,-1.72005 -0.1399222,0 -0.5320689,0.6278492 -0.8714367,1.3952202 -0.6230935,1.4089249 -1.3186344,2.3089466 -1.7843645,2.3089466 -0.1394831,0 -0.014825,-0.3274218 0.2770179,-0.7276042 0.7845904,-1.0758498 1.3263912,-3.4580638 0.9996567,-4.3953349 -0.414809,-1.1899213 -2.1508717,-1.8353705 -4.6034703,-1.7115201 -1.5669739,0.079129 -1.8765221,0.035494 -1.5325394,-0.2160328 0.8974603,-0.656239 5.3114691,0.094266 6.6783603,1.1355083 l 0.8661636,0.6598082 0.8078742,-0.6797813 c 1.0986786,-0.9244772 1.7878277,-1.0765018 4.8799345,-1.0765018 2.1040752,0 2.8075348,0.09824 3.3772983,0.4716503 0.603005,0.3951951 1.2015396,0.4595288 3.6923642,0.396875 l 2.9727014,-0.074775 -0.021802,-0.9260417 c -0.011991,-0.509323 -0.2203497,-1.6356659 -0.4630208,-2.5029847 -0.4976699,-1.7786967 -0.5701612,-3.7380096 -0.1765991,-4.7731565 0.1786113,-0.4697836 0.1755855,-0.8623705 -0.00931,-1.2078495 -0.2405237,-0.4494225 -0.1835838,-0.511843 0.4669012,-0.511843 0.4074573,0 1.1851212,0.238125 1.7281419,0.5291666 0.5430205,0.2910417 1.2231219,0.5291667 1.5113365,0.5291667 0.2882144,0 0.715822,0.2927176 0.9502392,0.6504835 0.2778969,0.4241242 0.8049686,0.7253859 1.5146324,0.8657286 l 1.0884194,0.2152449 0.042765,1.6145026 c 0.05263,1.9869416 0.1828845,2.2102907 1.2890119,2.2102907 0.4829164,0 1.0176156,0.1681903 1.1882205,0.3737565 0.4648131,0.5600658 -0.2302447,1.9959059 -1.3969471,2.8857936 -0.530814,0.4048715 -0.9651164,0.8589423 -0.9651164,1.0090465 0,0.150104 -0.3571875,1.0867356 -0.79375,2.0814036 -0.5241002,1.1941146 -0.79375,2.2442401 -0.79375,3.0911841 0,0.7402632 -0.2058884,1.6665981 -0.4868656,2.1905104 -0.6299671,1.1746415 -1.137925,1.3638829 -0.9715736,0.3619627 z m -11.4442734,-2.9560831 c 1.2569581,-0.7217974 2.095211,-3.5001685 1.4472666,-4.7969341 -0.759981,-1.5209907 -5.8547082,-1.8058401 -7.7330544,-0.4323599 -1.0020162,0.7326922 -0.2575581,4.5492616 1.0214324,5.2365174 1.4498635,0.7790731 3.9009334,0.77571 5.2643554,-0.00722 z m -13.8698134,0.8358521 c 0.1909961,-0.07643 0.4191992,-0.067031 0.5071181,0.020889 0.087919,0.087919 -0.068351,0.1504529 -0.3472656,0.1389645 -0.3082245,-0.012695 -0.3709194,-0.075391 -0.1598525,-0.1598535 z m -0.723378,-8.7489472 c 0.6678771,-0.8831933 1.1441456,-1.124461 2.2126196,-1.1208664 1.5842504,0.00533 2.2645344,0.2519633 2.2645344,0.8209958 0,0.555933 -0.1510146,0.5756013 -1.8520833,0.2412183 -0.9004615,-0.1770058 -1.3334381,-0.1419572 -1.7766287,0.1438145 -0.838078,0.5403977 -1.2873903,0.4952979 -0.848442,-0.085162 z m 14.7431199,0.054103 c -0.6018104,-0.3266964 -1.0077649,-0.3373975 -2.5788861,-0.06798 -1.4528869,0.2491425 -1.9349315,0.2494627 -2.1829448,0.00146 -0.5031563,-0.5031563 0.048129,-0.8336201 1.8838379,-1.1292523 1.8511176,-0.298114 2.5220834,-0.1749647 3.3937979,0.6228977 1.0252319,0.9383737 0.7403407,1.2547918 -0.5158049,0.5728854 z m -15.5576326,-3.965527 c 0,-0.2231321 0.3869532,-0.8106749 0.8598959,-1.3056511 0.4729427,-0.4949759 1.0561902,-1.1756165 1.2961053,-1.5125346 0.2399155,-0.3369183 0.5151464,-0.5357847 0.6116246,-0.4419259 0.096478,0.093859 -0.1693441,0.5701089 -0.5907169,1.0583334 -0.4213728,0.4882245 -0.9901653,1.274634 -1.2639834,1.7475767 -0.5339718,0.9222841 -0.9129255,1.1108222 -0.9129255,0.4542015 z"
         id="path867" />
    </g>
  </g>
</svg>
